<svg version="1.2" xmlns="http://www.w3.org/2000/svg" viewBox="0 0 754 777" width="754" height="777">
	<title>Dragon art vector</title>
	<style>
		.s0 { fill: #d5de21 } 
	</style>
	<g id="Layer 1">
		<g id="&lt;Group&gt;">
			<path id="&lt;Path&gt;" class="s0" d="m629.4 22.6c5.1-0.6 10 2.5 10 2.5-3.1-4.2 0.4-10 0.4-10-9.7-0.1-10.4 7.5-10.4 7.5z"/>
			<path id="&lt;Path&gt;" class="s0" d="m651.7 33.5c-4.5-0.9-4.7 0.7-8.1 2.2-3.4 1.5-6.5-0.1-8.5-2.5 0 0 6.5 1.4 9.4-3.3 0 0-2.9 0.6-6.6-2.5-3.8-3.2-12.8-2.4-16.4 1.4-3.6 3.8-3.5 10.8 0.7 12.8 4.1 1.9 8.4 0.1 8.2-3-0.2-3.1-3.5-3.6-4.8-2.5 0 0 1.8-2.6 3.7-1.8 1.9 0.8 3.2 4.9 5.2 4.9 0 0-3.7 7.1-10.9 5.7 0 0-8.4 12.4-22 12.7 0 0 4 6.6 8.7 6.6 4.7-0.1 9-1.4 12.1-3.6 3.2-2.2 5.4-2.8 7-2.5 0 0-3.7-3.2-6.9-3.1 0 0 1.2-0.9 4.1-0.1 2.9 0.8 6 0.3 10-3.7 4.1-4 11.4-14.4 14.2-14.9 2.8-0.4 5 0.9 7.1 2.5 0 0-1.8-4.3-6.2-5.3z"/>
			<path id="&lt;Path&gt;" class="s0" d="m600.2 55.2c0 0 8.5 2.1 21.6-11.1 0 0-3.6-1.6-4.2-5.5 0 0-4 12.9-17.4 16.6z"/>
			<path id="&lt;Path&gt;" class="s0" d="m592.5 20.1c-3.1 7.3 1.3 15.8 6.9 16.8 5.5 0.9 8.7-3.4 7.6-7.2-1-3.9-6.2-4-6.2-4 2.6-2.8 9.8-0.4 9.6 5-0.2 5.4-3.2 10.3-12.1 13.4-8.9 3.2-10.8 0.1-10.8 0.1-1.1 3.3-6 6-6 6 0 0 9 3.8 21.2-0.2 12.2-4 14.7-17.9 13.9-23.7-0.8-5.9 0.3-8.6 0.3-8.6-4.8 0.8-6.3-1.7-6.3-1.7 6.3 1 6-1.3 9.4-6.2 3.4-4.9 11.3-6.5 11.3-6.5-4-0.7-16.1-0.3-20.3 2.5-4.3 2.9-3.2 7.1-3.2 7.1-3.6-1.3-1.9-5.8-1.9-5.8-5 2-10.3 5.8-13.4 13z"/>
			<path id="&lt;Path&gt;" class="s0" d="m575.8 36.9c2.7-3.9 0.6-8.1-4.8-8.1 0 0 2.4-2.7 6.5 0.2 4.1 3 1.4 15.5-11.1 19.1-12.4 3.6-12.3-3.3-12.3-3.3 0 0-2.5 3.1-9.9 2.7 0 0 9.7 5.9 21.5 4.8 11.9-1.1 21.6-7.5 22.2-16.3 0.7-8.9-1.1-13.4-1.1-13.4 0 0-0.7 2.5-3.7 1.7-3-0.8-4.4-1.6-5.9-1.1 0 0 0.9-1.5 3.6-1 2.7 0.6 6.4-0.3 6.2-4.5-0.2-4.1 1.7-10.7 10.4-11 0 0 0.3 1.1 1.9 0.9 1.6-0.2 1.4-2.5-2.7-2.6-4 0-27.9 1.2-25.1 15.9 0 0-3.4-1.1-2.5-7.5 0 0-9.7 9.3-6.8 17.8 3 8.6 11 9.6 13.6 5.7z"/>
			<path id="&lt;Path&gt;" class="s0" d="m579.3 51.4c0 0-2.7 1.9-6.4 2.2 0 0 8.8 6.8 14.5 6 0 0 0-2.6 2.2-3.8 0 0-8-0.6-10.3-4.4z"/>
			<path id="&lt;Path&gt;" class="s0" d="m599.7 61.3c-2.4-3.1-3.9-4.4-6.2-4.7-2.4-0.2-4.3 2-4.1 4.1 0.2 2.2 4.2 2.9 4.4 0.2 0 0 0.4 2.8-2.2 3.1-2.6 0.3-3.7-1.1-4.6-3.2 0 0-8.5 1.5-17.6-6.4 0 0-18.9 1.9-31.7-8 0 0 16.3 16.9 39.4 19.2 23.1 2.3 29.5-0.1 29.5-0.1 0 0-4.5-1.2-6.9-4.2z"/>
			<path id="&lt;Path&gt;" class="s0" d="m556.3 44.8c0 0 6.8 4.9 15.5-3.9 0 0-1.8-1.8-4.5-0.3-2.7 1.5-5.8 1.9-5.8 1.9 0 0 1.5-1.7 0-3.8 0 0-1.2 5-5.2 6.1z"/>
			<path id="&lt;Path&gt;" class="s0" d="m552.4 43.7c8.2-2.7 7-11.8 7-11.8 0 0-2.6 5.3-10.4 7.6-7.8 2.3-13.3 1.1-13.3 1.1 2.2 2.5 8.4 5.9 16.7 3.1z"/>
			<path id="&lt;Path&gt;" class="s0" d="m547.9 27c-4.3 2-9.1 0.3-14-2.7-4.9-3-7.2-0.2-7.2-0.2 1.8 0.9 5.3 7.6 6.5 10.8 1.2 3.1 5.9 5 12.8 2.6 6.9-2.3 11.6-7.9 10-12.7-1.6-4.8-5.5-7.4-8.5-6.6 0 0 1.7 0.4 2.7 2.1 1 1.6 2.1 4.6-2.3 6.7z"/>
			<path id="&lt;Path&gt;" class="s0" d="m525.4 22.7c0 0 6.7-1.1 9-8.1 2.3-7-3.7-11.1-3-13 0 0-1.5-0.2-2.1 3.4-0.6 3.6-5.9 8-16.5 6.9 0 0 9.1 5.7 12.6 10.8z"/>
			<path id="&lt;Path&gt;" class="s0" d="m753.1 12.1c-2.4-6.1-10.7-9.5-29.5-9.7-18.8-0.2-52.7-0.6-53.9 1.3-0.8 1.2-1.9 1.9-2.6 2.3 2.2-2.6 3-5.6 3-5.6-9.9 4.1-24.2 0.6-30.9 3.2-5.8 2.3-6.7 6.6-6.8 7.8l0.1-0.4c-0.1 0.4-0.1 0.6-0.1 0.6-0.5-1.6-0.2-3.5 0.2-5-11.2 2.8-13.2 11-13.2 11 0.2 2.9 0.3 8.7 0.3 8.7 1.4-3.6 6.1-4.6 6.1-4.6 4.8-10.7 14.7-8.6 14.7-8.6 8.3-8.2 16.5-2 15.4 3.7-0.8 3.9-5.4 3.5-5.4 3.5 1.5-0.9 2.2-2.9 1.6-4.4-0.7-1.6-3.5-4.2-7.4-1.7-4.5 2.9-2.4 13.4 5 15.3 6.2 1.6 14.8 1 19.1-5.4 4.3-6.5 8.5-5.1 8.5-5.1-1.7-4.3-8.6-4.3-8.6-4.3 0 0 2.7-1.1 7.3 0.3 4.7 1.3 8.3 0.3 14.4-2.8 6.1-3.1 13.7-4.6 35.4-5.7 21.8-1.2 23.5 6.7 23.5 6.7-4.5 0.6-3.6 3.8-1.9 5.1 1.8 1.4 8.1-0.1 5.7-6.2z"/>
			<path id="&lt;Path&gt;" class="s0" d="m521.5 37.5c3.8 3.1 6 15.6-5.7 26.7-11.7 11.1-19.5 4-22.5 2.3-3-1.7-7.6-1.7-12.9 1.9-5.3 3.7-9.1 14.9-4.1 20.7 4.9 5.8 10.4 2.2 10.4 2.2-5.7 1.8-9.3-3.1-8.8-6.4 0.5-3.4 3.4-5.8 6-5.5 2.5 0.4 4.1 2.2 7.6 0.9 3.4-1.3 2.3-5.3 1.6-5.8-0.7-0.6-2.7-0.4-2.7 0.9 0 1.2-1.7 2.3-2.9 0.9-1.2-1.3-0.3-4.3 2.7-4.6 3-0.4 6.1 2.9 5.7 6.2-0.5 3.2-3.7 4.7-3.7 4.7 17.5 3.6 23.1-3.3 23.1-3.3 0.5-1.6 0.5-3.8-0.6-5.4-1.1-1.6 0.2-2.7 0.2-2.7 3.2 2.1 2.2 7.4 2.2 7.4 0 0 5.4-2.4 10.4-7 5-4.7 5.7-9.8 3.5-11.7-2.3-1.8-1.6-3.8-1.6-3.8 2.7 0.1 4.9 3.9 4.9 3.9 0 0 1.7-9.9-1-16.2-2.6-6.2-11.8-6.3-11.8-6.3z"/>
			<path id="&lt;Path&gt;" class="s0" d="m492.8 63.8c5.9 5.3 11.3 6 19.3 1 8-5 11.7-16.6 9.6-22.3-2.1-5.7-7.4-4.9-7.4-4.9 4.6 4.4 4.1 13.9-2 20.5-6.1 6.5-12.3 5.1-15.2 2.5-2.9-2.6-3-7.6 0.6-8.8 3.6-1.2 5.2 1.6 5.2 1.6-0.9-0.8-3.3-0.9-4.8 0.4-1.5 1.3-1.1 4.9 2.4 6.1 3.5 1.1 6.6-1.4 6.6-4.4 0.1-3.1-4-10.3-12.3-10.2-8.3 0-14.5 4.1-14.5 4.1 5.7 1.3 6.7 9.2 12.5 14.4z"/>
			<path id="&lt;Path&gt;" class="s0" d="m514.9 45.6c0.3-8.2-8.2-9.2-8.2-9.2 0 0 5 4.2 4.3 10.3-0.6 6-2.4 5.2-2.4 5.2 0 0 1.6 3.4 0.2 5.9 0 0 5.8-4.1 6.1-12.2z"/>
			<path id="&lt;Path&gt;" class="s0" d="m460 21.4c0 0 7.2-6.3 21.8-6.7 14.5-0.4 22.8 6.6 22.8 6.6 0 0 2.2-2.8 7.1-2.2 5 0.6 7.4 4.5 7.1 7.3-0.2 2.8-2.1 5.3-4.6 3.8 0 0 3.1-1.4 1.9-5.1-1.2-3.7-7.6-4.9-10.2-0.7-2.6 4.3 0.4 10 4.1 10.8 3.7 0.8 8.8 0.4 8.8 0.4 0 0-1-2.8 0.2-4.5 0 0-0.1 0.6 0.4 2.3 0.6 1.7 2.7 2.5 5.5 2.2 2.8-0.3 5.7 1.4 7.2 2.6 0 0-3.5-9.4-5.5-11.5-2-2.2-5.7-1.1-5.7-1.1 0 0 2.2-1.9 4.2-1.4 0 0-11.4-13.3-19.3-7.6 0 0 1.4-3.6 5.3-3.5 0 0-7.6-4.8-13.5-5.8-5.8-0.9-12.2 0-15.9 4.4 0 0 0.6-5.2 8.3-6.6 0 0-10.7-3.7-17.1-1-6.4 2.7-13.2 9.4-12.9 17.3z"/>
			<path id="&lt;Path&gt;" class="s0" d="m454.5 33.3c23.8-14.8 48.1-1.4 48.1-1.4-2-5.4 0.7-8.9 0.7-8.9-24.6-13.7-45.1 1.3-45.1 1.3 0.6 5.1-3.7 9-3.7 9z"/>
			<path id="&lt;Path&gt;" class="s0" d="m467.7 45.3c6.3 2.9 11.7 0.3 11.7 0.3 15.3-7.8 26.1 1.1 26.1 1.1-0.5-8.5-9.2-13.2-9.2-13.2 0 0 0.9 1.5 0.8 2.5-0.2 1.1 1 2.9 1 2.9-4.2-1.7-2.6-6.3-7.7-8.1-5.1-1.9-13.9 0.3-13.9 0.3 4.5 1.5 4.7 6 4.7 6 0 0-3.3-5.4-11.1-4-7.8 1.4-17.7 10.4-17.7 10.4 3.1-1.3 9.1-1.1 15.3 1.8z"/>
			<path id="&lt;Path&gt;" class="s0" d="m463.6 58.3c-7-1-11.7 5.7-9.5 9.9 2.2 4.2 7.8 3.6 7.8 3.6-8.3 3.8-12.2-3.1-12-6.2 0.2-3.1 3.2-10.4 15.5-11.2 12.2-0.8 17.4 9.6 17.4 9.6 2.2-1.2 5.5-1 5.5-1 0 0-2.4-3.6-5.2-6.9-2.8-3.3-14.8-11.2-25.6-7.7-10.7 3.4-16.4 14.4-16.4 14.4 5.1-0.4 6.1 2.3 6.1 2.3 0 0-8.9-1.8-12.8 10.1-3.8 11.9-3.2 22.6-0.1 29.5 2.8 6.3 9.9 8 12.2 5.4 2.3-2.7-0.2-5.1-0.2-5.1 0.7 1 0.1 2.8-1.1 2.8-1.2 0-1.4 1.6-2.3 1.8-0.9 0.1-4.9-0.7-6.5-7.8-1.5-7.2 5.3-14.9 11.1-17.3 5.8-2.3 4.1-5.9 5-8 0.9-2.1 3.9-1 3.9-1-2 1.2-1.4 6.1-1.4 6.1 11.6 2.8 16.5-5.8 17.1-10.4 0.6-4.6-1.5-12-8.5-12.9z"/>
			<path id="&lt;Path&gt;" class="s0" d="m467 56.5c3.9 1.7 5.8 4.8 7.4 8.3 1.6 3.4 3.7 2.6 4.5 1.5 0.7-1 2.7-1.7 2.7-1.7-6.7-9.2-14.6-8.1-14.6-8.1z"/>
			<path id="&lt;Path&gt;" class="s0" d="m413.9 54.1c0 0 4.9-9.8 14.2-22.3 9.4-12.4 18.4-13.7 21-11 2.7 2.7-0.5 5.8-0.5 5.8 0.1-2.4-1.7-3.6-4.6-3.6-2.8 0-7.6 5.3-3.2 9.2 4.5 4 8.3 3.5 12.4-1.5 4.1-5 3.3-12.1 3.3-12.1-3.3 1.2-5.7-1.5-5.7-1.5 4.6 0.9 7.2-1.4 8.7-6 1.6-4.7 9.5-7.6 9.5-7.6-2.2-0.1-13.7 1.4-18.8 3-5.1 1.6-4 6.4-4 6.4-3.1-2.7 0.2-5.4 0.2-5.4-7.9 2.6-17.2 9.5-20.7 12.6-3.5 3.1-1.7 9.9-1.7 9.9-2.6-0.8-2.8-5.1-2.8-5.1-9.5 8.8-12.5 14.8-10.5 18.8 2.1 4.1 3.2 10.4 3.2 10.4z"/>
			<path id="&lt;Path&gt;" class="s0" d="m438.4 33.8c0 0-7.2 6.8-13.6 15.7-6.3 8.9-6.7 20.6-6.7 20.6 1.2-1.9 3.7-3.1 6-4 2.2-0.9 0.9-1.6 5.9-10.7 5-9 16.6-17.1 16.6-17.1-5.8-0.4-8.2-4.5-8.2-4.5z"/>
			<path id="&lt;Path&gt;" class="s0" d="m436.9 32.2c-0.8-0.6-1.9-3.5-1.9-3.5-12.3 11-19.9 28.5-19.9 28.5 0.7 2.6 1.1 10 1.1 10 1.8-18.9 20.7-35 20.7-35z"/>
			<path id="&lt;Path&gt;" class="s0" d="m425.7 70c-4.7 1.5-7.4 2.8-8 5.5-0.6 2.6 0.9 5.8 0.2 13.4 0 0 6.9-3.2 8.6-7.2 1.7-4.1 1.5-7.5 1.5-7.5 0 0-1.8 4.2-5.7 5.9 0 0-0.5-4.3 1.7-5.5 2.3-1.2 8.2-3.5 5.6-9.8 0 0 0.7 3.8-3.9 5.2z"/>
			<path id="&lt;Path&gt;" class="s0" d="m344.7 36.9c-9.2 2.2-13.7 7.1-14.4 10.9 0 0 2.9-4.6 18.1-3.2 2.4-2 7.3-5.6 14.1-7.2-2.8-0.7-10.4-2.2-17.8-0.5z"/>
			<path id="&lt;Path&gt;" class="s0" d="m385.2 52.3c0 0 6.5 0 10.1 2.2 0 0-1-5.8-4.4-8.3 0 0-6.1 2-10.7-1-0.9-0.2-1.9-0.5-2.6-1-0.7-0.6-1.9-0.8-3.3-0.9 0.5 0.2 2.6 1.2 4.6 2.5 2.4 1.4 5.5 4.6 6.3 6.5z"/>
			<path id="&lt;Path&gt;" class="s0" d="m408.4 78.1c0 0 2.3-6.6-0.3-10.2-2.6-3.6-10.2-14.3-26.6-13.6q-0.4 0.1-0.8 0.2c1.1 0.3 4 1.5 4.5 5.4 0 0-1.4-0.3-2.7-2.1-0.9-1.2-4.2-2.8-7.9-1.3q-1.1 0.5-2.1 1.2c-1.3 1-2.7 2.5-3.9 4.6 0 0 5.1-1.4 7.7 4.9 2.6 6.2 5.5 13.4 11.8 13.2 6.3-0.2 8.4-6.2 6.1-11-2.4-4.8-8.6-1.9-9 1.4 0 0-1.1-4.5 3.1-5.9 4.2-1.5 14 2.8 18 17.5 4.1 14.6-3.2 21.7-3.2 21.7 0 0 4.7 9-2 25.1 0 0 12.9-13.1 14.2-37.7-0.1-5.1-0.8-11.6-3.2-16.4 0 0-1.9 2.6-3.7 3z"/>
			<path id="&lt;Path&gt;" class="s0" d="m281.2 27.5c2.1-2 6.1-4.9 11.3-6.8-7.6-4-14.7-0.7-17 0.7 0.9 3.7 0.3 8-0.9 10.3 0 0 2.5-0.2 6.6-4.2z"/>
			<path id="&lt;Path&gt;" class="s0" d="m191 9.9c0 0 8.2-4.1 15.1-1.1 6.8 3.1 22.8 12.5 35.4 9.3 0 0-3.9 3.9-9 4.4 0 0 10.6 7.7 17.4 11.9 3.6 1.6 8.3 2.9 13.1 2.3 10.6-1.3 11.4-9.6 10.1-14.6-1.3-4.9-7.2-6.9-11.7-4.1-4.5 2.8-2.6 7-0.2 7.6 2.5 0.6 4.2-0.8 4.2-3.3 0 0 1.5 4.1-3.1 5.9-4.6 1.7-8.3-4-7.2-8.4 1.2-4.3 8.3-8.1 15.2-5 2 0.9 3.3 2.4 4.2 4.1 3.4-1.8 12.4-5.5 21.4 0.7 4.5-1.2 9.7-1.5 15.3 0 0 0-8.2-13.6-32.6-13.5l-2.9 0.1c0 0 4.1 1.5 4.7 7.2 0 0-7.1-8.5-21.4-8.9-10.2-0.2-16.2 0.5-16.2 0.5 0 0 3.9 2.7 2.6 8.4 0 0-2.3-6-9.8-7.6-7.4-1.6-36.5-2.1-43.1 0.8-6.6 2.9-5.6 5.6-4.4 6.8 1.2 1.2 3.7-1.1 2.9-3.5z"/>
			<path id="&lt;Path&gt;" class="s0" d="m380.9 29.9c0 0-1.6 0.6-3.4-0.4 0 0-0.2 9.1 3.2 13 3.5 4 8.7 3.8 10.7 0.2 1.9-3.5-0.1-6.6-2.9-6.9-2.8-0.4-3.7 3.5-2 4.8 0 0-3.5-2.9-1.2-5.8 2.3-2.9 6.5-1.9 8.5 1.7 2 3.6-0.8 7.9-0.8 7.9 0 0 4.4 4.5 4.8 11.2 0 0 10.8 4.6 16.9 21.1 0-1-0.2-19.1-8.1-35.5-1 4.6-3.7 5-3.7 5 0 0 2.8-5.3 0.4-10.6-2.3-5.1-13.5-14.5-14.4-15.3q-0.1-0.1-0.1-0.1c1 3.6-0.5 7.5-0.5 7.5 0.2-3-0.6-6.2-2.6-8.9-0.5-0.6-1.4-1.3-2.5-2q-4.1-2.2-8.8-4c1 1.2 3.3 4.5 3.3 8.5 0.1 5.2 1.2 7.9 3.2 8.6z"/>
			<path id="&lt;Path&gt;" class="s0" d="m355 26.1c9.8 1.4 15.9 3.8 19.4 5.7 0-1.4 0.2-2.3 0.2-2.3 0 0-8.3-7.8-20.9-8.8-12.5-1.1-13.3 0.6-13.3 0.6 0 0 0 3.6-1.7 4.9q-0.2 0.2-0.5 0.4c4.7-1 10.3-1.5 16.8-0.5z"/>
			<path id="&lt;Path&gt;" class="s0" d="m376.5 40.7c-1-2-1.6-3.9-1.8-5.6-2.7-1.7-8.7-4.8-20.1-6.4-13.1-1.9-22.6 2.3-27.4 5.1-4.1 3-11.4 11.1-9.3 21 2.3 10.7 9 17.2 19.7 14.5 10.7-2.7 11.8-11.1 10.4-16-1.5-4.9-9.1-7-14-4.8-4.9 2.2-4.4 7.3-2 9.1 2.5 1.8 6.8 0.3 6.9-2.5 0-2.8-2.9-2.5-3.5-2 0 0 1.2-1.9 3.6-1.3 2.5 0.5 3.2 6-0.6 8-3.9 2-9.8 1.3-11.5-5.6-1.7-6.8 2.5-14.6 13.2-18.4 10.6-3.9 24.5-1.2 27.8 0.8 2.7 1.5 6.2 3.5 8.6 4.1z"/>
			<path id="&lt;Path&gt;" class="s0" d="m311.8 13c3.8 4.8 7.4 3.5 9.6 2.4 0 0-1.8 3-4.7 3.2 0 0 2.3 2 4 4.3 1.7 2.4 3.4 5.9 2.1 9.2 0 0 2.8-3.5 6.2-4.1 3.5-0.5 8.6-2.9 8.8-7.6 0.3-4.7-3.9-5.3-6.1-5.1-2.1 0.2-3.9 3.7-2.8 5.8 0 0-3.2-2.5-1.2-6.1 2.1-3.5 7.2-3 9.4-0.8 2.2 2.3 2.7 4.5 2.7 4.5 0 0 20.5-4.4 35.2 8.9 0 0 3.7-12.1-8.8-17.5q-0.4-0.1-0.8-0.3c-6.9-1.9-14.5-3.3-22.7-4.1 3.6 2.7 3.2 6 3.2 6-1.6-3.5-4.8-5.5-8-6.4q-8.4-0.7-17.5-0.6c2.7 2.1 3.2 5 3.2 5-3.6-4-11.5-4.6-16.9-4.5q-2.2 0.2-4.5 0.3l-0.7 0.1c4.3 2.4 8.6 5.2 10.3 7.4z"/>
			<path id="&lt;Path&gt;" class="s0" d="m364.3 73.1c1.4-5.3 0.2-9.9-0.5-11.7-1-2.8-2.5-8-7.8-11.8-2.2-1.1-4.9-1.8-7.8-1.6 0 0 9.3 6.8 6.1 19.5-3.1 12.6-18.5 16.7-24.3 14.9 0 0 13.1-0.1 19.1-11 6.1-10.8 1.2-15.2 1.2-15.2 0 0 1.8 12.7-10.9 16.8 0 0-6.8 2-11.6 0.4 0 0 0.8 3.7-0.2 5.8-1.1 2.1-4.9 3.6-7.2 2.9-2.4-0.6-3.7-4.4-2.1-6.1 0 0-0.4 4 2.9 4.4 3.2 0.3 6.3-2.8 4.4-6.5-1.9-3.7-6.9-7.1-15.4-4.8 0 0 3.1 1.5 3 5.3 0 0-0.9-0.2-2.4-2.3-1.4-2.1-6.8-2.1-9.9-1.1-2.3 0.7-8.7-0.5-13.1-2.2 1.7 2.1 3.5 4.2 5.2 6 5.1 5.1 13.3 10.7 19.9 4.4 0 0-2.4 4.5-7.6 4.7 0 0 15.7 11.6 21.5 2.7 0 0-1.3 3.8-3.6 4.9 0 0 22.2 4.4 25.7-8 0 0 0.6 3-0.5 5.2 0 0 3.2-1.1 6.4-3.1q2.3-1.6 4.1-3.3 0.6-0.6 1-1.3c3-4.8 3.4-9.1 0.7-10.6 0 0 2.2 0.2 3.7 2.7z"/>
			<path id="&lt;Path&gt;" class="s0" d="m299.5 26.5c-0.8-1.9-3.2-4-7.3-2.5-4 1.5-7.2 4.6-8.5 5.7-1.4 1.1-4.1 2.6-4.1 2.6 0 0 3.3-0.4 5.1 0.8 1.7 1.3 6.4 4.3 10.3 2.7 0 0-1.1 2.2-4.4 2.6q0.5 0.7 1.4 2 0.9 1.2 2.2 2.9c0.9 1.1 1.9 2.2 3.2 3.4 1.2 1.1 2.6 2.3 4.2 2.9 0.4 0.1 1 0.4 1.4 0.4q0.7 0.2 1.4 0.3c1 0.1 2 0.1 3 0 1-0.1 2-0.3 2.9-0.7q1.4-0.7 2.5-1.8c0.7-0.7 1.2-1.7 1.6-2.6l0.2-0.8v-0.1c0 0 0 0 0 0v-0.1l0.1-0.2 0.1-0.4c0.1-0.6 0.1-1.1 0.2-1.6 0-1.1-0.1-2.2-0.4-3.2-0.3-1.1-0.8-2-1.4-2.9q-0.9-1.3-2.2-2.2c-0.9-0.6-1.8-0.9-2.8-1.1h-0.8c-0.2-0.1-0.5 0-0.7 0h-0.4c0 0-0.2 0-0.3 0l-0.8 0.1c-1 0.2-1.9 0.5-2.7 1-0.8 0.4-1.4 1-1.7 1.8-0.4 0.7-0.5 1.5-0.4 2.3v0.1 0.1q0 0 0 0v0.1c0 0.1 0 0.2 0 0.2 0.1 0.2 0.2 0.3 0.2 0.5q0.3 0.5 0.6 0.9c0.5 0.5 1.1 0.9 1.6 1.2q0.5 0.1 0.9 0.1l0.1 0.1c0 0 0 0 0 0h0.1l0.2-0.1q0.2 0 0.4 0c0.6-0.1 1.1-0.3 1.4-0.6 0.8-0.5 0.9-1.3 0.9-1.8 0-0.5-0.1-0.8-0.1-0.8-0.1 0 0.2 0.2 0.3 0.8 0.1 0.3 0.2 0.6 0.1 1.1 0 0.4-0.3 0.9-0.7 1.3-0.4 0.4-1 0.7-1.7 0.9q-0.2 0.1-0.5 0.1l-0.2 0.1h-0.1-0.1-0.1q-0.7 0-1.2-0.2-1.2-0.4-2.2-1.4-0.4-0.5-0.8-1.1c-0.1-0.2-0.2-0.5-0.3-0.7 0-0.2-0.1-0.3-0.1-0.4v-0.1-0.1-0.2c-0.1-1 0-2 0.4-3 0.5-1 1.3-1.9 2.3-2.4 1-0.6 2-0.9 3.2-1.2l0.7-0.1c0.2 0 0.3-0.1 0.5-0.1h0.4c0.3 0 0.6 0 0.9 0l0.9 0.1c1.2 0.1 2.4 0.5 3.4 1.2 1.1 0.6 2 1.5 2.8 2.5 0.7 1 1.3 2.2 1.7 3.4q0.4 1.4 0.5 2.9c0.4-1 0.7-1.6 0.8-2.1 0.4-1.2 0.9-10.4-3.2-14.3-4.1-4-11.3-3.7-15.4-2.5 0 0 3.4 2.6 2.4 6.5 0 0-1.1-0.4-1.9-2.3z"/>
			<path id="&lt;Path&gt;" class="s0" d="m311.2 51.4c-1.1 0.6-2.3 0.9-3.5 1.1-1.2 0.1-2.4 0.1-3.5 0q-0.9-0.1-1.7-0.3c-0.6-0.1-1-0.2-1.6-0.4-2.2-0.8-3.8-2.1-5.2-3.3-1.4-1.2-2.5-2.5-3.4-3.6q-1-1.1-1.8-2.1c-0.1 1-0.4 1.9-0.9 2.9q-1.1 1.9-2.5 2.9c2.1 2.2 7.3 7 13.6 7.6 7.6 0.8 12.6-3.2 13.8-4.9q0-1.2 0.1-2.2 0.1-0.3 0.1-0.5-0.2 0.3-0.4 0.5c-0.9 1-2 1.8-3.1 2.3z"/>
			<path id="&lt;Path&gt;" class="s0" d="m261.3 43.1q0 0 0 0c1.1 0.4 2.4 1 3.5 2.1 2.4 2.3 4.4 5.3 9 4.2 0 0-2 1.6-3.5 1.9 0 0 2.6 0.6 4.3 2.9 1.7 2.2 5.9 5.1 8 4.1 2.2-1 3.8-1.4 4.9-1.2 0 0-0.9 0.3-1.7 1.4-0.8 1.1-2.3 1.5-3.5 1.5 0 0 3.5 2.5 8 3.7 4.5 1.3 9.4 0 11.5-2.9 0 0-0.2 3.8-3.5 5.1 0 0 7.1 0.9 11.9-0.4 4.8-1.3 5.1-2.4 5.1-2.4 0 0-0.7-3.8-0.8-8-2.5 2-6.7 3.9-12.1 3.9q-1 0-2-0.1c-8-0.8-14.1-7.1-15.9-9.1q-1.5 0.4-3.2 0.2c-3.5-0.4-5.1-3-4.9-5.8 0.1-2.8 2.7-3.2 3.9-2.6 0 0-2 0.9-2 2.6 0 1.8 2.3 4.7 6 3.1 3.7-1.5 2.3-8.6-1.1-10.1-3.5-1.5-6.6-1.7-10 0.6-2.1 1.4-7.5 3.7-11.9 5.3z"/>
			<path id="&lt;Path&gt;" class="s0" d="m390.2 82.8c0 0 9.5 9.4 12.1 17.7 0 0 5.7-11.6-4.2-28.7 0 0 1.1 8.1-7.9 11z"/>
			<path id="&lt;Path&gt;" class="s0" d="m394 91.8c0 0-0.4 5.4-5.5 6.2 0 0 2.8-2.9 2.5-6.8-0.3-3.9-11.5-15.7-27.4-6 0 0 6-2.3 8.9 1.3 3 3.6 2 9.9 3.2 12.3 1.2 2.4 4.5 1.8 3.8 6.3 0 0-1.4-0.3-1.8-1.5-0.4-1.1-1.3-2.2-2.7-2.5-1.3-0.2-1.7-1.7-1.3-2.7 0 0-2.2 1.6-1.7 3.3 0.6 1.7 1.1 3.7 0.4 5.5-0.7 1.7-2.3 8.3 1.9 12.3 4.2 4 11.6 4.8 15.3 0.9 3.8-3.9 1-9.5-1.7-10.3-2.6-0.8-5 0.2-5.8 1.2-0.8 1-0.7 2.7 0 3.2 0.7 0.6 1.3 0.9 0.9 1.8-0.5 0.9-3.4 0.4-4.4-3.3-0.9-3.7 3.8-6.9 8.3-6.4 4.4 0.5 8.4 6.5 6.1 13.2-2.3 6.7-20.2 28.8-53.6 29.1 0 0-10.3 12.2-27.6 12.6 0 0 14.9 3.5 33.9 0.5-2.8-2.2-4.1-5-4.1-5 1.2 1.9 5.6 3.7 10.6 3.8 6-1.4 12.3-3.5 18.5-6.5-4.8-1.3-5-3.1-5-3.1 3.4 1.3 6.7 1.2 9.6 0.6q4.2-2.4 8.3-5.5c4-2.9 7.1-6 9.6-9.1-2.8 0-4.7-1-4.7-1 3.3-0.2 5.6-1.3 7.2-2.5 13.6-21.1-1.7-41.9-1.7-41.9z"/>
			<path id="&lt;Path&gt;" class="s0" d="m340.6 146.7c27.5-0.4 44.7-20 44.7-20-3.1 0.4-5.7 0.3-7.8-0.2-5.2 4.5-19.1 15.6-32.4 15.5-2.3 3.3-4.5 4.7-4.5 4.7z"/>
			<path id="&lt;Path&gt;" class="s0" d="m368.9 120.1c-7.7 11.4-20.4 15.3-20.4 15.3q-0.8 2.2-1.7 3.9c10.9-0.8 22.4-9.4 27.8-13.9-4.2-2-5.7-5.3-5.7-5.3z"/>
			<path id="&lt;Path&gt;" class="s0" d="m321.3 151.1c1.6 1.8 4.3 2.7 7.3 2q2.7-1.5 5.4-3.5c2.2-1.5 3.9-3.3 5.4-5.3-4.1-0.3-4.1-3.2-4.1-3.2 3.6 1.1 6.1-0.5 7.8-3 5-11.3 3.5-24.1 3.5-24.1-0.9 2.6-2.7 3.3-5.6 3.4-2.8 0.1-2.7 2.2-2.7 2.2-1-2.8 3.7-3.8 4.9-6.5 1.2-2.7-2.2-5.5-4-7.5-1.8-1.9-1.4-4.5 1.7-5 3.1-0.6 3.8-3.4 3.6-5.2-0.1-1.8 1.5-2.4 1.5-2.4 0 0-3.2 0.4-3.6 2.5-0.3 2.1-2.2 2.8-5.1 2.2-2.8-0.6-5.6 1.9-5.4 5.3 0.3 3.4-4.5 5.5-9.3 8.4-4.8 3-1.6 14.5-1.6 14.5 0.9-9.8 13.5-13.2 13.5-13.2-7.3 3.8-3.2 11.9-2.4 17.3 0.9 5.4-5.4 15.4-18.5 19.1-13.9 4-27.9-7.7-27.9-7.7-13.3 0.9-21.7-6.9-21.7-6.9 0 0 8.4 8.6 24.2 18.1q5.6 3.4 11 5c-3.2-3.2-2.4-7.3-2.4-7.3 0 0 2 7.4 10.1 8.6 5.9 0.3 11.7-1 17.6-3.7-2.9-0.9-3.2-4.1-3.2-4.1z"/>
			<path id="&lt;Path&gt;" class="s0" d="m302 140.6c-3.3 2.1-11.5 1.3-11.5 1.3 13.6 10.3 25.6 4.7 32.8-0.2 7.3-4.8 7-10.5 5.9-15.4-1.2-5-1.2-8-1.2-8-5.8 3.4-4.7 11.2-5.2 14.2-0.4 3-4.6 4-9.4 4.7-4.8 0.7-8.1 1.4-11.4 3.4z"/>
			<path id="&lt;Path&gt;" class="s0" d="m270.3 129.7c0.9 2.9 4.1 8.3 12.3 9.3 8.2 0.9 15.6-1.2 15.6-1.2-3.8-1.3-4.5-4.5-4.5-4.5 0 0 6.4 4.9 13.6-0.1 7.2-5 3.7-15.8 3.7-15.8 8.4 0.6 8.8-8.2 6.4-11.4-2.3-3.1-6.2-2.1-6.2-2.1 2 0.6 3.4 2.8 2.9 4.2-0.5 1.3 0.4 2.4-6.7 1.1-7.2-1.3-10.6 3-10.5 5.9 0.1 2.8 4.2 12.7-13.6 11.8-17.7-0.9-30.4-24.2-30.4-24.2 1.1 29.6 18.4 33.5 18.4 33.5-1.5-2.7-1-6.5-1-6.5z"/>
			<path id="&lt;Path&gt;" class="s0" d="m284.3 122.4c7-0.2 10.5-6.3 10.4-11.5-0.1-5.3-2.4-5.6-4.3-5.7 0 0 2.4 1 1.2 4.3-1.3 3.3-8.9 5.6-14.1 0.5 0 0-11.2 4.3-20.8-7.7 0 0 4.5 15 20.1 18.7 0 0-2.5-3.6-1.4-5.2 0 0 1.8 6.8 8.9 6.6z"/>
			<path id="&lt;Path&gt;" class="s0" d="m267.7 107.2c-1.5-1.7-1-5-1-5 0 0 4.4 9.2 11.9 5.4 7.5-3.8 6.2-11.6 6.2-11.6-0.8 3.1-2.7 4.6-5.4 5-2.7 0.4-6.7-2.9-8.6-6.8-1.9-3.9-4.3-2-4.3-2-7.7 4.7-13.1-2.3-13.1-2.3 4 15.7 14.3 17.3 14.3 17.3z"/>
			<path id="&lt;Path&gt;" class="s0" d="m263.3 85.5c0.7-3.1 0.3-7.6-3.1-7.7-3.4 0-4.1 3.3-3.6 4.9 0.4 1.7 3.4 1.1 3.4 1.1-0.3 1.7-2.7 2.5-4.6 0.3-2-2.3-0.6-6.9 1.8-8.4 2.4-1.4 10.8 0 10 7.3-0.8 7.3-8.8 8.1-8.8 8.1 8.1 2.2 11.6-3.3 12.9-5.8 1.4-2.6 2.9-1.5 2.9-1.5-0.7-2.1-2.4-2.3-4-2.6-1.7-0.3-0.5-1.5-0.5-1.5 7.8 1.4 8-4.1 10-7 1.9-3 6-3.7 6-3.7-1.5-0.6-4.2-0.2-6.3 0.7-2.1 0.8-5.8 0.5-10.8-0.1-4.9-0.7-2.8 4.7-2.8 4.7 0 0-1.4-1.3-1.4-3.3 0.1-1.9-0.7-3.4-0.7-3.4-0.9 2.4-6.7 3.5-9.6 6-2.8 2.5-5.3 9.2-1 13.3 3.6 3.4 9.4 1.7 10.2-1.4z"/>
			<path id="&lt;Path&gt;" class="s0" d="m251.6 42.7c-7.3 0.7-14.1 6-14 12.4 0.1 6.4 5.9 8.9 5.9 8.9-4.2 0.4-6.6-2.3-6.6-2.3 1.2 11.6 12 15.4 12 15.4 0 0 0.6-3.5 3.5-6.5 2.8-2.9 2.3-8.9-2.3-16.4-4.5-7.5 1.5-11.5 1.5-11.5z"/>
			<path id="&lt;Path&gt;" class="s0" d="m230.1 51.3c0 0-2.9-0.2-4.3-1.8 0 0-1 18.8 23.6 32.9l-1-3.8c0 0-8.5-2.3-12.2-9.8-3.6-7.5 0.1-18.6 1.4-20.6 0 0-7.5-3.5-5-20.9 0 0-14.7 12.4-2.5 24z"/>
			<path id="&lt;Path&gt;" class="s0" d="m206.6 28.7c-0.2 9.2 9.5 12.9 9.5 12.9-4.4 0-7.3-3-7.3-3 3.2 9.8 16.3 22.3 16.3 22.3-4.2-8.9-2.6-27.1-2.6-27.1 0 0-4-2.5-8.7-6.4-4.7-3.9-1.9-9.6-1.9-9.6 0 0-5 1.6-5.3 10.9z"/>
			<path id="&lt;Path&gt;" class="s0" d="m200.6 51c7.2-1.6 14.4 2.4 14.4 2.4 0 0-7.3-16.5-18.4-9.7-11.1 6.7-5.8 18-5.8 18-0.1-4.7 2.6-9.1 9.8-10.7z"/>
			<path id="&lt;Path&gt;" class="s0" d="m221.3 60c-7-6.2-14.1-8.3-18.2-3.6-4.1 4.8-2.1 16.1-2.1 16.1 0 0 6.6-9.8 14.5-6.7 7.9 3 15.3 15.1 16.4 20 1.2 4.9 6.6 9 6.6 9-0.1-3 1.3-10.6 1.3-10.6 0 0-11.6-18-18.5-24.2z"/>
			<path id="&lt;Path&gt;" class="s0" d="m211.6 68.1c0 0 5.5 2.3 6.4 6.5 0.8 4.2 6.5 7.2 11.5 9.8 0 0-6.7-16.8-17.9-16.3z"/>
			<path id="&lt;Path&gt;" class="s0" d="m242.1 83.8c1.5-1.8 3-1.8 3-1.8-3.1-1-8.3-6.5-8.3-6.5z"/>
			<path id="&lt;Path&gt;" class="s0" d="m248.6 94.2c2.8-3.4 1.4-9.7-2-9.8-3.5 0-5.1 1.8-5.6 4.9-0.5 3.1-0.5 5.8-1.6 7.5 0 0 6.3 0.8 9.2-2.6z"/>
			<path id="&lt;Path&gt;" class="s0" d="m247 98.2c1.4 1 4.1 7 4.1 7-0.7-3.6 0.3-10.7 0.3-10.7-0.6 1.9-4.4 3.7-4.4 3.7z"/>
			<path id="&lt;Path&gt;" class="s0" d="m240.1 98.7c11.3 11 13.3 34.3 13.3 34.3 1.7-18-7.9-34.2-7.9-34.2-1.9 1-5.4-0.1-5.4-0.1z"/>
			<path id="&lt;Path&gt;" class="s0" d="m246.1 128.7c2.1-3.1 2-8.7 1.3-13.6-1.8-6.2-4.3-12-7.8-16.9-0.4 11.4-7.8 11.6-7.8 11.6 0 0 6.2-0.4 4.5-11.6-0.9-6.4-9.7-11.6-17.2-15-20.8-7.7-31.7 6.7-31.7 6.7 11.8-9.9 21.5-6.3 26 0 4.6 6.4-0.3 8.9 0.3 14.2 0.5 5.3 6.2 9.3 6.2 9.3-5.1 0.5-8.8-4.5-8.8-4.5-2.1 5.9-3.4 22 6.2 26.3 9.6 4.3 13.7-1.4 13.7-1.4-0.7 0.3-8.3 1.8-10.9-3.9q-0.1-0.2-0.2-0.5c-0.6-0.9-1.1-1.9-1.5-2.9-0.4-1.3-0.6-2.8-0.3-4.2 0.2-1.4 0.8-2.7 1.6-3.8 0.7-1.1 1.6-2 2.6-2.9 1.1-0.9 2.4-1.5 3.8-1.9 1.4-0.3 2.9-0.3 4.2 0.1 1.4 0.3 2.6 0.9 3.7 1.7 2.2 1.4 3.9 3.3 5.4 5.3 0.7 1.1 1.3 2.2 1.9 3.4 0.2 0.5 0.5 1.2 0.6 1.8 0.2 0.7 0.4 1.2 0.5 1.8 0.5 2.4 0.8 4.8 1 7.2q0.3 3.6 0.4 7.2c0 4.8-0.4 9.6-1.2 14.3-0.9 4.8-2.2 9.5-4.3 13.9q-1.6 3.3-3.8 6.3c-0.7 1-1.4 1.9-2.1 2.9l-2.2 2.7-4.4 5.6-2.3 2.7-0.3 0.4c2.4-0.2 5.2 0 7.6 0 3.6 0.1 7.2-0.8 9.6-1.5 2.1-3.6 3.7-7 4.8-10 4.1-11.3 7.4-33 4.5-53.1-1.5 2-3.6 2.3-3.6 2.3z"/>
			<path id="&lt;Path&gt;" class="s0" d="m184.3 170.3c-0.8 1.8-0.6 6 1.2 7.6 2.5 2.3 5.5 1.8 6.9-0.5 1.3-2.3-0.8-5.5-4.4-4.5 0 0 2.2-2.3 5.7-1.1 3.4 1.1 3.8 9.9-5.2 10.6 2.6 4.6 3.7 9.8 3.1 15.2-1 10.5-8.1 21.3-18 27.6-11.6 7.4-22.1 7.7-26.6 7.4q-1.2 1.3-2.6 2.6c-1.4 1.4-2.9 2.5-4.4 3.4 11.3 0.6 27.2-2.4 41.5-13.3 14.1-10.7 18.2-28.9 19.3-37.1-1.7 1.7-4.5 1.9-4.5 1.9 6.4-3.4 6.7-11.6 5.1-14.7-1.7-3.2-2.2-8.9-2.2-8.9-0.8 3.2-3.3 2.6-3.3 2.6 0 0 1.4-1.7 1.2-5.9-0.1-4.1-3.2-7-5-8.4-1.7-1.3-0.4-3-0.4-3-1.6 0.8-2.4 3.5-1.1 4.5 1.4 1.1 2.6 1.5 1.2 5.4-1.3 3.7-6.2 5.2-7.5 8.6z"/>
			<path id="&lt;Path&gt;" class="s0" d="m179.4 140.5c0.3 3.9-3.7 4.5-3.7 4.5 0 0 0.4-0.9 1.3-2.5 0.9-1.7 0.7-7.7-7.5-10.3-8.2-2.6-15.1 0.3-15.1 0.3 9.3-2 10.6 5.1 10.4 8.9-0.2 3.9 4.7 4.9 4.7 4.9 0 0-2.1 0.7-3.8-0.4-1.8-1-2.7-2.5-2.7-2.5 0 0-0.2 3.5-2.3 7.1-2.1 3.6-4.7 6.4-3.7 13.9 0.9 7.4 6.4 10.9 6.4 10.9h0.1c1.6-0.9 3.7-1.8 6.4-2.3-2.5-1.6-5.3-4.3-6.2-7.5-1.5-5.1 1.2-13.3 7.9-15.3 6.7-2.1 11 4.7 10.4 8.1-0.7 3.5-5.7 3.7-5.7 3.7 2.3-0.6 3.6-4.3 1.7-7-2-2.7-7.5-2.2-9.5 0.8-1.9 3-1.1 11.5 7.6 11.6 8.6 0.1 11.8-8.6 10.1-14.7-1.7-6.1-6.8-12.2-6.8-12.2z"/>
			<path id="&lt;Path&gt;" class="s0" d="m162.4 192c5.1 7.1 12.9 4.5 14.8 0.6 1.8-3.8-2.8-7.3-5.5-5.6-2.7 1.8-0.4 4.7-0.4 4.7-3.7-0.8-3.3-4.5-1.2-6.5 2.1-1.9 10.3-1.4 10.1 6-0.1 2.2-0.8 3.9-1.7 5.1 0.5 5.2 0.5 24.5-27.4 31q-0.8 1.3-1.9 2.6c4.9 0 13.6-1 23-7 9.2-5.8 15.8-15.9 16.8-25.5 0.6-6-1-11.6-4.6-16.5-2.3-2.7-5.7-4.6-8.3-5.5-5.6-0.4-9.2 1-11.2 2.2-3.6 3.1-6.4 9.2-2.5 14.4z"/>
			<path id="&lt;Path&gt;" class="s0" d="m176.4 169.4c0.7 1.5 2 3 3.3 4.2 1 0.4 1.7 0.7 1.7 0.7-1.2-2.4 0.8-5.8 0.8-5.8 0 0-2.3 0.8-5.8 0.9z"/>
			<path id="&lt;Path&gt;" class="s0" d="m172.8 169.2c-3.9-1-6.7-5.1-6.7-5.1-0.2 5 5.9 8.5 5.9 8.5 1.1-0.3 2.3-0.2 3.5-0.1-1.4-1.1-2.2-2.4-2.7-3.3z"/>
			<path id="&lt;Path&gt;" class="s0" d="m151.5 180c0.4 1.3 2.4 5.4 5.7 3.2 3.3-2.2 1.5-6.9-1.2-10.2-2.7-3.3-2.9-9.4-2.9-9.4-6.2 9.3-10.7 24.5-1.1 33.3 2.7 2.3 5.2 3.7 7.6 4.4 2.7 0.4 5.8 0.1 8.8-2-10.4-1.6-10.3-13.9-10.3-13.9-6.7 2.2-10.4-1.4-9.3-5.6 1-4.2 5.5-3.4 5.5-3.4-1.6-0.1-3.3 2.2-2.8 3.6z"/>
			<path id="&lt;Path&gt;" class="s0" d="m176 198.4c-1.4 0.7-2.6 0.9-2.6 0.9q-1.3 0.2-2.4 0.2-0.2 0.7-0.5 1.5c-2.9 13.7-12.6 16.5-16.2 17.1-0.1 1.8-0.5 3.8-1.5 6 21.4-5.8 23.4-19.7 23.2-25.7z"/>
			<path id="&lt;Path&gt;" class="s0" d="m222.5 193.2c-3.6 0.9-5 4-5 4-0.5-1.7-0.4-3 0.1-3.9q-0.4 0-0.8-0.1-1.4-0.1-2.7 0c-1.8 0.2-3.5 0.9-4.6 2.1q-0.9 0.9-1.4 2.2-0.5 1.2-0.6 2.5c-0.2 1.8 0.1 3.7 0.9 5.3 0.3 0.8 0.8 1.6 1.4 2.1 0.3 0.3 0.5 0.5 0.9 0.7l0.3 0.2q0.2 0 0.3 0.1 0.3 0.1 0.6 0.2c1.6 0.5 3.4 0.2 4.7-0.7 0.7-0.5 1.2-1.1 1.4-1.7 0.2-0.7 0.2-1.5 0-2.2-0.2-0.7-0.7-1.4-1.4-1.9-0.7-0.5-1.6-0.8-2.7-0.9 0.9-0.5 2.1-0.8 3.3-0.5 1.2 0.3 2.3 1.2 2.9 2.4 0.6 1.2 0.8 2.5 0.4 3.9-0.3 1.3-1.3 2.4-2.3 3.1-2 1.4-4.4 1.8-6.6 1.2-9.8 10.1-17.7 11.6-21.8 11.6q-0.9 0-1.5-0.1c-1.6 1.7-3.3 3.2-5.2 4.7-13 9.9-28.7 14.1-41.2 13.9q-3.4 0-6.4-0.4c-3.9 1.6-7.7 2.2-10.4 2.5 11.4 2.1 23.4 2.4 35.8 0.2 9.8-1.8 18.9-4.7 27.1-8.3-2.6-2-2.2-3.4-2.2-3.4 1.2 1.6 2.8 2.2 4.6 2.3 5.6-2.7 10.7-5.6 15.5-8.9-3.1-0.7-2.8-2.6-2.8-2.6 1.4 1.3 3.2 1.5 5 1.1 8.5-5.9 15.6-12.6 21.3-19.2-6.7 0.7-8.8-2.1-8.8-2.1 0 0 4.2 1.1 8.5 0.3 1-0.2 2.2-0.9 3.3-1.8q3.5-4.3 6.1-8.5c-7.2 2.2-12.8-0.2-16 0.6z"/>
			<path id="&lt;Path&gt;" class="s0" d="m190.6 220.2c3.6-0.2 10.1-1.9 18.2-9.9-0.3-0.3-0.7-0.5-1-0.8q-0.5-0.5-0.9-1.1c-2.2 2.1-7 6.1-13.3 7.7q-1.4 2.1-3 4.1z"/>
			<path id="&lt;Path&gt;" class="s0" d="m206.4 190.4c-1.8 1.2-3.1 2.9-4 4.4-1.2 5.2-3.2 11.5-6.7 17.8 4.9-1.9 8.5-5.2 9.8-6.6-0.7-2-1.1-4.1-0.9-6.2q0.1-1.8 0.8-3.5c0.4-1.1 1.1-2.1 1.9-3 0.9-0.9 1.9-1.7 3-2.2 1.1-0.5 2.3-0.8 3.4-0.9 1.2-0.1 2.3-0.1 3.4 0 0.8 0 1.6 0.2 2.4 0.3l0.5-0.5 1.1-1.4 2.2-2.7 4.3-5.6 2.2-2.8c0.7-0.9 1.4-1.8 2-2.7 1.3-1.9 2.5-3.8 3.4-5.9 2-4 3.3-8.5 4.1-13 0.8-4.5 1.2-9.1 1.1-13.7q0-3.4-0.3-6.9c-0.2-2.3-0.5-4.6-1-6.8-0.1-0.5-0.2-1.1-0.3-1.5-0.2-0.6-0.3-1-0.6-1.5-0.4-1-0.9-1.9-1.5-2.8-1.2-1.8-2.7-3.5-4.5-4.6-1.7-1.2-3.7-1.8-5.4-1.4-0.9 0.2-1.8 0.7-2.5 1.2q-1.3 1.1-2.2 2.3-0.7 1-1 2.2c-0.3 1.9 0.2 3.8 1.1 5.4 0.5 0.7 1.1 1.5 1.8 2.1q0.2 0.2 0.5 0.3c3.1 1.8 7.6 1.7 7.7-1.6 0.1-3.2-3.6-3.5-4.6-2.8-1.1 0.6-0.7 2.2-0.7 2.2-0.3-0.1-2.1-0.5-1.5-2.7 0.6-2.2 3.5-2.2 3.5-2.2 5.4-0.9 9.7 8.7 4.5 27.8-5.3 19.1-22.8 36.5-27 39.5z"/>
			<path id="&lt;Path&gt;" class="s0" d="m130.6 226.5c8.2-3.3 13.4-12.8 10-17.5-3.4-4.7-8.1-2.8-8.1-2.8 4.2-0.1 7 7.3 2 10.2-4.3 2.6-10.3 1.7-13.5-0.8-1.7 3-4.7 7.9-8.2 12.6 3.1 0.5 10.5 1.3 17.8-1.7z"/>
			<path id="&lt;Path&gt;" class="s0" d="m140.8 234.5c-1.8 0-4.5-2.5-4.5-2.5 0 0 6.5 1.9 11.9-5 3.2-4 4.2-9 4.4-12.6-1.7-12-12.2-13-12.2-13 11.7 4 4.7 21.5-8.1 27.4-10.4 4.8-18.8 2.8-21.5 1.9-2 2.6-4.2 5-6.4 6.8q5.9 2.4 12.2 4c-0.4-2.6 0.2-5 0.2-5 0 0 3.1 6.3 10.7 4.6 7.6-1.7 13.3-6.6 13.3-6.6z"/>
			<path id="&lt;Path&gt;" class="s0" d="m18.4 663c0 0 5.7-3.5 10-0.5 0 0-3.2-4.8-2.7-10 0 0-7.6 0.9-7.3 10.5z"/>
			<path id="&lt;Path&gt;" class="s0" d="m60.3 624.2c-0.1 13.6-12.3 22.2-12.3 22.2 1.5 7.2-5.6 11-5.6 11 0-2-4.1-3.3-4.9-5.2-0.8-1.9 1.7-3.7 1.7-3.7-1.1 1.4-0.6 4.6 2.6 4.7 3.1 0.2 4.8-4.1 2.8-8.2-2-4.1-9.1-4.1-12.8-0.5-3.7 3.7-4.4 12.7-1.2 16.4 3.3 3.7 2.7 6.7 2.7 6.7 4.6-3.1 3.1-9.5 3.1-9.5 2.5 1.9 4.2 5 2.7 8.4-1.5 3.4-3.1 3.7-2.1 8.1 1 4.5 5.3 6.2 5.3 6.2-1.6-2.1-2.9-4.3-2.5-7.1 0.4-2.8 10.7-10.3 14.7-14.4 3.9-4.1 4.4-7.1 3.5-10-0.8-2.9 0-4.2 0-4.2 0 3.3 3.2 6.9 3.2 6.9-0.2-1.6 0.3-3.8 2.4-7 2.2-3.2 3.4-7.5 3.4-12.2 0-4.7-6.7-8.6-6.7-8.6z"/>
			<path id="&lt;Path&gt;" class="s0" d="m47.2 644.6c13-13.3 10.7-21.8 10.7-21.8-3.4 13.4-16.3 17.7-16.3 17.7 3.9 0.6 5.6 4.1 5.6 4.1z"/>
			<path id="&lt;Path&gt;" class="s0" d="m29.2 639.7c5.9 0.7 19.7-2 23.5-14.3 3.9-12.3 0-21.1 0-21.1 0 0-2.7 4.8-5.9 6 0 0 3 1.9 0 10.8-3 8.9-7.9 12.1-13.2 12.3-5.4 0.2-7.9-6.9-5.2-9.5 0 0 0.2 5.1 4.1 6.2 3.8 1 8.1-2.2 7-7.8-1-5.6-9.6-9.9-16.8-6.7-7.2 3.2-10.9 8.6-12.8 13.7 0 0 4.5-1.8 5.8 1.7 0 0-4.2-1-7 3.4-2.8 4.3-2.9 16.4-2.2 20.3 0 0 1.5-7.9 6.4-11.4 4.8-3.5 7-3.2 6-9.4 0 0 2.5 1.4 1.7 6.2 0 0 2.8-1.2 8.6-0.4z"/>
			<path id="&lt;Path&gt;" class="s0" d="m46.8 576.9c0 0 6.9-0.2 3.5 12.3-3.4 12.5-15.9 15.4-18.9 11.3-3-4-0.4-6.5-0.4-6.5 0.1 5.4 4.3 7.4 8.2 4.8 3.8-2.7 2.8-10.7-5.8-13.6-8.6-2.8-17.8 7.1-17.8 7.1 6.4-1.1 7.6 2.4 7.6 2.4-14.7-2.6-15.6 21.3-15.5 25.3 0.1 4.1 2.4 4.2 2.6 2.7 0.2-1.6-0.9-1.9-0.9-1.9 0.1-8.8 6.7-10.7 10.8-10.6 4.2 0.1 5.1-3.6 4.4-6.3-0.6-2.6 1-3.6 1-3.6-0.6 1.5 0.3 2.9 1.1 5.9 0.9 3-1.6 3.8-1.6 3.8 0 0 4.6 1.7 13.4 0.9 8.8-0.8 15.1-10.6 16-22.5 0.9-11.9-5.1-21.5-5.1-21.5 0.5 7.4-2.6 10-2.6 10z"/>
			<path id="&lt;Path&gt;" class="s0" d="m62.1 610c0.7-5.8-6.2-14.4-6.2-14.4-0.2 3.7-2.1 6.4-2.1 6.4 3.8 2.3 4.5 10.2 4.5 10.2 1.2-2.2 3.8-2.2 3.8-2.2z"/>
			<path id="&lt;Path&gt;" class="s0" d="m48.2 560.5c10 12.6 8.4 31.6 8.4 31.6 8.1 9 6.7 17.5 6.7 17.5 2.2 0.8 3.5 1.9 3.3 4.5-0.3 2.6-3.1 2.2-3.1 2.2 2.7-0.2 1.9-4.2-0.2-4.3-2.2-0.2-4.4 1.7-4.1 4.1 0.3 2.3 1.7 3.7 4.8 6.1 3 2.4 4.3 6.9 4.3 6.9 0 0 2.3-6.4-0.3-29.5-2.7-23.1-19.8-39.1-19.8-39.1z"/>
			<path id="&lt;Path&gt;" class="s0" d="m40.9 584.4c2.1 1.5 3.7-0.1 3.7-0.1 0 0-0.4 3.2-1.8 5.9-1.4 2.7 0.4 4.5 0.4 4.5 8.6-8.9 3.6-15.6 3.6-15.6-1 4-5.9 5.3-5.9 5.3z"/>
			<path id="&lt;Path&gt;" class="s0" d="m33.9 582.4c0 0 9.2 1.1 11.8-7.2 2.6-8.3-0.8-14.5-3.4-16.6 0 0 1.3 5.5-0.9 13.3-2.2 7.8-7.5 10.5-7.5 10.5z"/>
			<path id="&lt;Path&gt;" class="s0" d="m36.6 556.2c-3.2-1.2-10-4.6-10.9-6.3 0 0-2.8 2.3 0.3 7.1 3.1 4.9 4.9 9.6 2.9 14-2 4.4-5 3.4-6.7 2.4-1.7-1-2.1-2.6-2.1-2.6-0.7 3 1.9 6.8 6.7 8.3 4.9 1.5 10.4-3.2 12.6-10.2 2.2-6.9 0.3-11.6-2.8-12.7z"/>
			<path id="&lt;Path&gt;" class="s0" d="m16.3 557.7c7-2.4 8-9.1 8-9.1-5.2-3.5-11.1-12.5-11.1-12.5 1.3 10.6-3 15.9-6.6 16.6-3.5 0.7-3.4 2.2-3.4 2.2 2-0.8 6.1 5.2 13.1 2.8z"/>
			<path id="&lt;Path&gt;" class="s0" d="m17.6 668c-2.4 3.9 0.2 6.7 1.8 7.3 1.5 0.6 3.5-0.1 4.4-1.7 0 0 0.5 4.6-3.5 5.5-5.6 1.2-12-6.9-3.9-15.4 0 0-2.3-9.8 8.4-14.7 0 0 1-4.8 4.5-6.2 0 0-5.8-0.1-8.7-0.2 0 0-8.1 2.2-10.8 13.4 1.5-0.5 3.3-0.7 5-0.3 0 0-0.2 0-0.6 0.1l0.4-0.1c-1.2 0.2-5.5 1-7.7 6.9-2.5 6.8 1.2 21-2.8 31 0 0 3.1-0.9 5.6-3.1-0.4 0.7-1 1.8-2.2 2.6-1.9 1.2-1 35.2-0.5 54 0.5 18.8 4 27 10.1 29.3 6.1 2.3 7.6-4 6.2-5.8-1.4-1.7-4.6-2.5-5.1 1.9 0 0-7.9-1.6-7.1-23.3 0.8-21.7 2.2-29.4 5.2-35.5 3-6.1 4-9.7 2.5-14.4-1.4-4.7-0.4-7.4-0.4-7.4 0 0 0.2 6.9 4.5 8.6 0 0-1.5-4.2 4.9-8.6 6.4-4.4 6.8-13 5.2-19.2-2-7.3-12.6-9.3-15.4-4.7z"/>
			<path id="&lt;Path&gt;" class="s0" d="m89.9 498.4c-5.8-4.9-17-0.9-20.6 4.4-3.6 5.4-3.4 10-1.7 13 1.8 2.9 8.9 10.6-2 22.5-10.9 11.9-23.4 9.9-26.6 6.2 0 0 0.2 9.1 6.5 11.7 6.4 2.5 16.2 0.7 16.2 0.7 0 0-3.9-2.2-3.9-4.8 0 0 2-0.8 3.8 1.4 1.8 2.2 7 1.4 11.6-3.6 4.5-5.1 6.9-10.5 6.9-10.5 0 0-5.4 1-7.5-2 0 0 1.1-1.4 2.7-0.3 1.6 1 3.8 1 5.4 0.5 0 0 6.8-5.8 3-23.1 0 0-1.5 3.1-4.7 3.7-3.3 0.5-6.6-2.6-6.3-5.6 0.2-3 3.2-4 4.6-2.8 1.4 1.2 0.3 2.9-0.9 2.9-1.2 0.1-1.4 2.1-0.8 2.7 0.5 0.7 4.5 1.8 5.7-1.7 1.3-3.5-0.5-5-0.9-7.6-0.4-2.5 2-5.5 5.3-6 3.3-0.6 8.3 3 6.6 8.7 0 0 3.4-5.5-2.4-10.4z"/>
			<path id="&lt;Path&gt;" class="s0" d="m50.3 503.1c0 0-4 6.2-3.9 14.5 0.1 8.3 7.3 12.3 10.4 12.2 3-0.1 5.5-3.3 4.3-6.7-1.2-3.5-4.8-3.8-6.1-2.3-1.3 1.5-1.2 3.9-0.4 4.8 0 0-2.8-1.6-1.7-5.2 1.2-3.6 6.2-3.5 8.9-0.7 2.6 2.8 4.1 9-2.3 15.2-6.5 6.2-16 6.9-20.5 2.3 0 0-0.7 5.4 5 7.4 5.8 1.9 17.3-1.9 22.2-10 4.8-8.1 4-13.4-1.3-19.2-5.3-5.8-13.3-6.6-14.6-12.3z"/>
			<path id="&lt;Path&gt;" class="s0" d="m47 537.7c8.1-0.5 12.1-6.3 12.1-6.3-2.5 1.4-5.9-0.1-5.9-0.1 0 0 0.8 1.8-5.2 2.5-6 0.7-10.3-4.2-10.3-4.2 0 0 1.1 8.5 9.3 8.1z"/>
			<path id="&lt;Path&gt;" class="s0" d="m37.2 547.9c0.2-2.8-0.6-5-2.3-5.5-1.7-0.5-2.4-0.4-2.4-0.4 1.8-1.2 4.6-0.3 4.6-0.3 0 0 0.3-5-0.5-8.7-0.9-3.7-6.7-6.7-10.9-4-4.2 2.7-2.9 9 0.8 10.2 3.7 1.1 5.1-2 5.1-2 1.5 2.5-0.9 4.4-3.8 4.7-2.8 0.3-6.6-2-7.3-7-0.7-4.9 2-7.2 2-7.2 0 0-7.1-8.1-6.9-22.7 0.2-14.5 6.4-21.8 6.4-21.8-7.9-0.2-14.5 6.7-17.1 13.2-2.7 6.4 1.3 17.1 1.3 17.1 1.2-7.8 6.4-8.5 6.4-8.5-4.3 3.8-5.1 10.2-4.1 16 1 5.8 5.9 13.4 5.9 13.4-0.1-3.9 3.5-5.3 3.5-5.3-5.7 8 7.8 19.2 7.8 19.2-0.5-2.1 1.4-4.3 1.4-4.3 0 0-1 3.7 1.1 5.6 2.2 2 11.7 5.4 11.7 5.4-1.3-1.5-3-4.3-2.7-7.1z"/>
			<path id="&lt;Path&gt;" class="s0" d="m33.7 477.5c0 0-3.7 4.3-8.8 3.8 0 0-14.7 20.7-0.7 45.2 0 0 3.5-2.8 8.9-0.9 0 0-13.7-24.1 0.6-48.1z"/>
			<path id="&lt;Path&gt;" class="s0" d="m33.8 493.1c-1.3 7.8 4.2 11.1 4.2 11.1 0 0-4.5-0.2-6.1-4.7 0 0-2 8.9-0.1 13.9 1.9 5.1 6.5 3.4 8.2 7.6 0 0-1.8-1.2-2.8-1-1.1 0.2-2.6-0.7-2.6-0.7 0 0 4.9 8.6 13.4 9 0 0-9.1-10.7-1.6-26.1 0 0 2.6-5.5-0.4-11.7-3-6.2-3.3-12.1-2-15.3 0 0-8.9 10.1-10.2 17.9z"/>
			<path id="&lt;Path&gt;" class="s0" d="m104.9 456.2c-7-2.9-17.7-3.4-29.6 0.6-11.8 4-9.8 12.9-9.8 12.9 0 0-2.7-0.9-2.4-6 0 0-10.9 5.8-14.2 16.6-3.3 10.8 4.7 22.7 8.1 25.5 3.3 2.7 7 5 7 5 0 0-0.3-3.2 0.9-5.5 0 0-10.4-5-9.8-17.2 0.5-12.3 7.8-15.5 10.9-15.7 3.1-0.2 10.1 3.5 6.4 11.9 0 0 0.5-5.6-3.7-7.8-4.3-2.1-10.9 2.7-9.8 9.7 1.1 7 8.4 9 13 8.3 4.7-0.7 13.2-5.7 10.2-17.3 0 0-4.9-0.4-6.1 1.5 0 0-1.1-2.9 1-3.9 2-0.9 5.7 0.8 7.9-5.1 2.3-5.9 9.9-12.8 17.1-11.3 7.2 1.4 8 5.5 7.9 6.4-0.1 0.9-1.8 1-1.8 2.2 0.1 1.2-1.7 1.9-2.8 1.2 0 0 2.5 2.4 5.1 0.1 2.6-2.3 0.8-9.4-5.5-12.1z"/>
			<path id="&lt;Path&gt;" class="s0" d="m67.2 501.4c1-0.8 1.8-2.9-1.6-4.5-3.5-1.5-6.7-3.4-8.4-7.2 0 0-1 7.9 8.3 14.4 0 0 0.7-2 1.7-2.7z"/>
			<path id="&lt;Path&gt;" class="s0" d="m6.9 473.6c-1.5 5.1-2.9 16.6-2.7 18.8 0 0 2.8-7.9 7.4-9.5 4.6-1.6 6.9-4.2 5.9-8.8 0 0 2.8 2.3 1.7 5.6 0 0 7 0.7 12-3.4 4.9-4.2 5.3-8.1 1.3-12.5-4-4.4-9.2 0.6-9.2 3.4 0.1 2.8 1.3 4.6 3.7 4.5 0 0-3 3.2-5.8 0.6-2.7-2.6-1.6-11.6 10.7-21.1 12.3-9.6 22-14.6 22-14.6 0 0-6.3-1.1-10.3-3.1-4.1-1.9-10 1.2-18.7 10.8 0 0 4.3 0.2 5.1 2.7 0 0-6.8-1.6-9.8 1.9-3.1 3.5-9.8 12.9-12.3 20.9 0 0 2.6-3.3 5.3-0.3 0 0-4.8-1-6.3 4.1z"/>
			<path id="&lt;Path&gt;" class="s0" d="m66.1 446.6c0.9-2.3 2-4.9 3.9-6.1 0 0-11.6 0.6-20.4 7.1-8.8 6.5-15.5 13.8-15.5 13.8 0 0 4.1 2.3 4.5 8.1 0 0 7.9-11.7 16.9-16.8 9-5.2 9.8-3.9 10.6-6.1z"/>
			<path id="&lt;Path&gt;" class="s0" d="m32.4 459.9c0 0 15.8-19.2 34.7-21.3 0 0-7.4-0.2-10-0.9 0 0-17.4 7.9-28.2 20.4 0 0 2.9 1 3.5 1.8z"/>
			<path id="&lt;Path&gt;" class="s0" d="m74.3 450.4c0 0 3.4 0.1 7.4-1.7 4-1.7 7.1-8.7 7.1-8.7-7.6 0.8-10.8-0.6-13.4 0.1-2.7 0.6-4 3.4-5.4 8-1.3 4.7-5.1 4-5.1 4 6.4 2.6 8.6-3.5 9.7-5.7 1.2-2.3 5.5-1.8 5.5-1.8-1.7 3.9-5.8 5.8-5.8 5.8z"/>
			<path id="&lt;Path&gt;" class="s0" d="m46.4 353.1c-3.8 0.8-8.7 5.4-10.7 14.6-1.6 7.3 0 14.9 0.7 17.7 1.6-6.8 5.1-11.8 7.1-14.1-1.7-15.2 2.9-18.2 2.9-18.2z"/>
			<path id="&lt;Path&gt;" class="s0" d="m45.1 401.7c-1.3-2-2.3-4-2.5-4.6 0.1 1.4 0.3 2.7 0.9 3.3 0.5 0.7 0.9 1.7 1.1 2.7 3 4.5 1.1 10.6 1.1 10.6 2.6 3.4 8.4 4.3 8.4 4.3-2.3-3.6-2.4-10-2.4-10-1.9-0.9-5.1-4-6.6-6.3z"/>
			<path id="&lt;Path&gt;" class="s0" d="m103.8 425c0 0-7 7.4-21.7 3.6-14.7-3.9-19.1-13.6-17.8-17.8 1.4-4.2 5.9-3.2 5.9-3.2-3.2 0.4-6.1 6.8-1.2 9 4.8 2.3 10.7 0.1 10.9-6.2 0.1-6.3-7.1-9.1-13.5-11.6-6.3-2.6-4.9-7.7-4.9-7.7-2.1 1.3-3.6 2.7-4.6 4.1q-0.6 0.9-1.1 2c-1.5 3.8 0.2 7.1 1.4 7.9 1.8 1.3 2.1 2.7 2.1 2.7-3.9-0.5-5.1-3.3-5.5-4.4q0 0.4-0.1 0.8c-0.4 16.4 10.4 23.8 13.9 26.3 3.7 2.6 10.2 0.2 10.2 0.2-0.3 1.8-2.9 3.8-2.9 3.8 4.8 2.3 11.4 2.9 16.5 2.9 24.6-1.7 37.5-14.8 37.5-14.8-16 7-25.1 2.4-25.1 2.4z"/>
			<path id="&lt;Path&gt;" class="s0" d="m29.4 297.6c-2.3 1.2-6.5 2-10.2 1.1-1.4 2.3-4.6 9.4-0.5 17 1.8-5.2 4.7-9.2 6.6-11.4 4-4.2 4.1-6.7 4.1-6.7z"/>
			<path id="&lt;Path&gt;" class="s0" d="m11.2 303.7c-5.6-0.5-7.2-4.6-7.2-4.6l-0.1 2.9c0.3 24.4 14 32.4 14 32.4-1.6-5.5-1.3-10.8-0.2-15.3-6.4-8.9-2.8-18-1.1-21.3-1.7-0.9-3.2-2.3-4.1-4.2-3.2-6.9 0.5-14 4.8-15.3 4.3-1.2 10.1 2.5 8.5 7.1-1.7 4.6-5.9 3.2-5.9 3.2 2.5-0.1 3.9-1.8 3.3-4.3-0.7-2.4-5-4.2-7.7 0.3-2.6 4.6-0.6 10.5 4.4 11.7 4.9 1.2 13.2 0.2 14.4-10.3 0.5-4.8-0.9-9.5-2.6-13.1-4.2-6.8-12.1-17.2-12.1-17.2-0.5 5.1-4.2 9-4.2 9 2.9-12.6-6.7-28.5-9.9-35.2-3.1-6.8 0.9-15.1 0.9-15.1 2.4 0.8 4.7-1.8 3.5-3-1.3-1.1-4-2.1-6.8 4.6-2.8 6.6-1.8 35.7-0.1 43.1 1.6 7.4 7.7 9.6 7.7 9.6-5.7 1.4-8.4-2.4-8.4-2.4 0 0-0.7 6-0.2 16.1 0.5 14.3 9.1 21.3 9.1 21.3z"/>
			<path id="&lt;Path&gt;" class="s0" d="m55.2 420.4c-6.6-0.3-11.2-4.5-11.2-4.5 0 0-4.3 2.8-8 0.8-3.6-1.9-4.6-6.1-1.7-8.4 2.8-2.3 5.7 1.1 5.7 1.1-1.3-1.7-5.2-0.7-4.8 2.1 0.5 2.8 3.5 4.7 7.1 2.7 3.5-2 3.6-7.2-0.4-10.6-4-3.4-13.1-3-13.1-3 1.1 1.7 0.4 3.3 0.4 3.3-0.7-2-3.4-3-8.5-3-4.1 0-7.4-2.2-8.6-3.1q1.9 4.6 4.2 8.7c0.6 1.1 1.3 1.9 2 2.4 2.7 1.9 5.9 2.8 8.9 2.5 0 0-3.9 1.5-7.5 0.6q0 0 0.1 0.1c0.8 0.9 10.4 11.9 15.5 14.2 5.3 2.3 10.6-0.6 10.6-0.6 0 0-0.3 2.7-5 3.8 16.6 7.6 34.6 7.6 35.7 7.6-16.7-5.9-21.4-16.7-21.4-16.7z"/>
			<path id="&lt;Path&gt;" class="s0" d="m25 361.8c-1.4 1.7-4.9 1.8-4.9 1.8 0 0-1.7 0.8-0.5 13.3 1.2 12.6 9.1 20.8 9.1 20.8 0 0 0.9-0.2 2.4-0.3-2-3.4-4.5-9.5-6.1-19.3-1-6.5-0.6-12.1 0.3-16.8q-0.2 0.3-0.3 0.5z"/>
			<path id="&lt;Path&gt;" class="s0" d="m27.7 377.7c1.8 11.3 4.9 17.3 6.7 19.9 1.7 0.3 3.6 0.8 5.6 1.8-0.6-2.4-2.7-5.9-4.3-8.5-1.9-3.3-4.9-17.1-1.2-27.9 3.7-10.7 11.4-15 18.3-13.4 6.8 1.6 7.7 7.5 5.7 11.4-1.9 3.8-7.4 3.2-8 0.7-0.6-2.4 1.2-3.6 1.2-3.6-0.4 0.6-0.7 3.5 2.1 3.4 2.8 0 4.3-4.4 2.4-6.9-1.8-2.4-7-2.8-9.1 2.2-2.1 5 0.1 12.5 5.1 13.8 4.9 1.4 13.3 0.2 15.8-10.5 2.6-10.7-4.1-17.4-14.8-19.5-9.9-1.9-17.9 5.5-20.9 9.6-2.7 4.8-6.7 14.4-4.6 27.5z"/>
			<path id="&lt;Path&gt;" class="s0" d="m3.2 343.8q0 9.2 0.8 17.6c1 3.1 3 6.3 6.6 7.8 0 0-3.3 0.4-6.1-3 0.9 8.1 2.4 15.7 4.4 22.5q0.2 0.4 0.4 0.8c5.6 12.4 17.6 8.5 17.6 8.5-13.5-14.4-9.4-35-9.4-35 0 0-2.3-0.4-4.6-2.6-2.3-2.2-2.8-7.3 0.7-9.4 3.5-2.1 6.1 1.1 6.1 1.1-2.2-1.1-5.6 0.8-5.8 2.9-0.2 2.1 0.5 6.4 5.2 6 4.7-0.3 7-5.4 7.5-8.9 0.5-3.5 4-6.2 4-6.2-3.3 1.3-6.8-0.4-9.2-2-2.4-1.7-4.4-4-4.4-4-0.1 2.9-3.1 4.8-3.1 4.8 1.1-2.3 2.3-5.9-2.6-9.6-2.2-1.6-5.1-5.9-7.6-10.2v0.8q-0.1 2.2-0.2 4.5c-0.1 5.3 0.7 13.2 4.7 16.8 0 0-2.9-0.5-5-3.2z"/>
			<path id="&lt;Path&gt;" class="s0" d="m89.9 345.3c-1 2.4-4.8 3.7-4.8 3.7 8.8-5.9-3-21.4-3-21.4-0.1 5.1-4.6 7.6-4.6 7.6 6.3-6.7 0.5-14.8-4.7-19.8-1.8-1.7-3.9-3.4-6-5.1 1.7 4.3 3 10.8 2.3 13-0.9 3.2-0.9 8.5 1.3 9.9 2.2 1.4 2.3 2.3 2.3 2.3-3.8 0.2-5.3-2.9-5.3-2.9-2.2 8.6 1.3 13.6 5 15.4 3.8 1.8 6.8-1.3 6.4-4.6-0.4-3.2-4.4-2.8-4.4-2.8 1.7-1.6 5.5-0.3 6.2 2 0.7 2.4-0.8 6.2-2.9 7.3-2.1 1-5.8 0.3-5.8 0.3 1.7 4.8-0.1 11.6-0.1 11.6-4 12.7-16.7 11.1-16.7 11.1 0 0 4.5 4.8 15.2-1.4 10.7-6.2 10.6-19.3 10.6-19.3 2 5.8-1.9 21.3-14.5 24.6-12.6 3.3-19.5-5.8-19.5-5.8-0.2 2.9 0.6 5.5 1.7 7.8 3.9 5.2 9.1 6.6 11.9 7.6 1.8 0.6 6.4 1.7 11.7 0.3-2.5-1.5-2.7-3.7-2.7-3.7 1.5 2.8 5.8 2.2 10.5-0.8q0.7-0.5 1.3-1.1 1.7-1.7 3.3-4.1c1.9-3.2 2.9-6.4 2.9-6.4-2.2 1.1-5.1 0.5-5.1 0.5 12.4-3.6 7.5-25.8 7.5-25.8z"/>
			<path id="&lt;Path&gt;" class="s0" d="m37.5 340.5c0.5-0.1 1.1-0.4 2.1-0.8q-1.5-0.1-2.9-0.5c-1.2-0.4-2.4-0.9-3.4-1.6-1-0.8-1.9-1.7-2.6-2.7-0.7-1.1-1.1-2.3-1.3-3.5l-0.1-0.9c0-0.3 0-0.5 0-0.8l0.1-0.5c0-0.2 0-0.3 0-0.4l0.1-0.8c0.2-1.1 0.6-2.2 1.1-3.2 0.6-1 1.4-1.8 2.4-2.3 1-0.5 2.1-0.6 3-0.5h0.2 0.1 0.1c0.1 0.1 0.2 0.1 0.4 0.1 0.3 0.1 0.5 0.2 0.7 0.3q0.7 0.4 1.1 0.8 1 1 1.5 2.1 0.2 0.6 0.2 1.2v0.2 0.1l-0.1 0.3q0 0.3-0.1 0.5c-0.1 0.7-0.4 1.3-0.8 1.7-0.4 0.4-0.9 0.7-1.4 0.7-0.4 0.1-0.8 0.1-1.1 0-0.5-0.2-0.8-0.4-0.8-0.4 0 0 0.3 0.1 0.9 0.1 0.5 0.1 1.3-0.1 1.8-0.9 0.2-0.4 0.4-0.8 0.5-1.4q0-0.2 0-0.4v-0.2-0.1c0 0 0 0 0 0v-0.1q0-0.4-0.2-0.9c-0.2-0.5-0.6-1.1-1.2-1.6q-0.4-0.3-0.9-0.5c-0.1-0.1-0.3-0.2-0.4-0.2-0.1 0-0.2-0.1-0.3-0.1h-0.1q0 0 0 0h-0.2c-0.7-0.1-1.6 0.1-2.3 0.4-0.7 0.4-1.3 1-1.8 1.8-0.4 0.8-0.7 1.7-0.9 2.7l-0.1 0.8c0 0.1 0 0.3 0 0.3v0.4c0 0.3 0 0.5 0 0.8l0.1 0.7c0.2 1 0.5 2 1.1 2.8q0.9 1.3 2.2 2.2c0.9 0.6 1.9 1 2.9 1.3 1.1 0.3 2.2 0.4 3.3 0.3 0.5 0 1 0 1.6-0.2l0.4-0.1h0.2c0 0 0.1 0 0.1 0l0.1-0.1 0.7-0.2c1-0.4 1.9-0.9 2.6-1.6q1.1-1.1 1.7-2.5c0.5-0.9 0.7-1.9 0.8-2.9 0.1-1 0-2.1-0.1-3q-0.1-0.8-0.3-1.4c-0.1-0.4-0.3-1-0.4-1.4-0.7-1.6-1.9-3-3-4.2-1.2-1.2-2.4-2.3-3.5-3.1q-1.6-1.3-2.9-2.2-1.3-0.9-2-1.4c-0.3 3.3-2.6 4.5-2.6 4.5 1.6-3.9-1.5-8.6-2.8-10.3-1.3-1.8-0.9-5-0.9-5 0 0-1.4 2.7-2.5 4-1.1 1.4-4.1 4.6-5.6 8.7-1.5 4.1 0.7 6.5 2.7 7.2 1.9 0.7 2.2 1.9 2.2 1.9-3.9 1.1-6.5-2.3-6.5-2.3-1.1 4.1-1.3 11.3 2.7 15.3 4 4.1 13.2 3.4 14.4 3z"/>
			<path id="&lt;Path&gt;" class="s0" d="m49.7 333.9c-0.5 1.2-1.2 2.2-2.2 3.1q-0.3 0.3-0.5 0.5 0.2-0.1 0.4-0.1 1.1-0.2 2.2-0.2c1.7-1.2 5.6-6.2 4.8-13.9-0.8-6.3-5.6-11.4-7.9-13.4q-1 1.4-2.8 2.5c-1 0.5-2 0.8-2.9 1q1 0.7 2.1 1.7c1.2 0.9 2.4 2 3.7 3.4 1.2 1.4 2.5 2.9 3.4 5.1 0.1 0.6 0.3 1 0.4 1.6q0.2 0.8 0.3 1.7c0.1 1.1 0.2 2.3 0 3.5-0.1 1.2-0.4 2.4-1 3.5z"/>
			<path id="&lt;Path&gt;" class="s0" d="m35.1 306.1c1.6 3.4 8.6 4.7 10.1 1 1.5-3.7-1.4-6-3.2-6-1.7 0.1-2.6 2.1-2.6 2.1-0.6-1.2-0.2-3.8 2.6-4 2.8-0.2 5.4 1.3 5.8 4.8q0.2 1.8-0.1 3.3c2 1.7 8.4 7.8 9.3 15.7q0.1 1.1 0.2 2c0.1 5.5-1.8 9.6-3.8 12.1 4.3 0.2 8 0.7 8 0.7 0 0 1.1-0.2 2.4-5.1 1.2-4.8 0.2-11.8 0.2-11.8-1.2 3.2-5 3.4-5 3.4 2.8-2 4.1-7 2.7-11.5-1.3-4.4-3.9-7.9-3.9-7.9 0 1.2-0.3 2.7-1.4 3.5-1.1 0.8-1.4 1.7-1.4 1.7-0.2-1 0.2-2.7 1.1-4.8 1-2.2-1.9-6.4-4.2-8-2.3-1.6-2.9-4.3-2.9-4.3-0.3 1.6-1.9 3.5-1.9 3.5 1.1-4.6-2-6.5-4.3-8.8-1.1-1.2-1.7-2.5-2.1-3.5q0 0-0.1-0.1c-1.5 4.5-3.7 10-5.1 12-2.2 3.4-1.9 6.6-0.4 10z"/>
			<path id="&lt;Path&gt;" class="s0" d="m71.5 420.5c17.2 9.7 28.7 3.7 28.7 3.7-8.4-2.4-17.9-11.8-17.9-11.8-2.8 9.1-10.8 8.1-10.8 8.1z"/>
			<path id="&lt;Path&gt;" class="s0" d="m147.6 360.6c0.3 33.5-21.6 51.7-28.3 54.1-6.6 2.4-12.7-1.5-13.2-6-0.6-4.4 2.5-9.2 6.3-8.3 3.7 0.9 4.2 3.8 3.3 4.3-0.9 0.5-1.2-0.2-1.8-0.9-0.6-0.6-2.3-0.7-3.2 0.1-1 0.8-2 3.2-1.1 5.9 0.8 2.6 6.5 5.3 10.3 1.5 3.8-3.8 2.9-11.1-1.1-15.3-4.1-4.2-10.6-2.4-12.4-1.7-1.8 0.7-3.8 0.2-5.5-0.3-1.7-0.5-3.2 1.7-3.2 1.7 1-0.4 2.5 0 2.7 1.3 0.3 1.3 1.4 2.2 2.5 2.6 1.2 0.5 1.5 1.8 1.5 1.8-4.4 0.7-3.9-2.6-6.3-3.7-2.4-1.1-8.7-0.1-12.3-3-3.7-2.9-1.5-8.9-1.5-8.9-9.4 16.1 2.5 27.1 6.4 27.3 3.9 0.2 6.8-2.5 6.8-2.5-0.8 5.1-6.1 5.5-6.1 5.5 0 0 21 15 41.9 1.1 1.2-1.7 2.2-4 2.4-7.3 0 0 1 1.9 1.1 4.7 3-2.5 6-5.7 8.9-9.7q3-4.2 5.4-8.4c0.5-2.9 0.5-6.2-0.7-9.6 0 0 1.7 0.1 3.1 5 2.9-6.3 4.9-12.6 6.2-18.6-0.1-5-2-9.4-4-10.6 0 0 2.9 1.3 5.2 4.1 2.6-19.1-1.1-33.9-1.1-33.9-0.2 17.3-12.2 27.7-12.2 27.7z"/>
			<path id="&lt;Path&gt;" class="s0" d="m145.4 361.9c0 0-1.3 2.2-4.5 4.5 0.2 13.3-10.6 27.4-15.1 32.7 0.5 2.1 0.7 4.6 0.3 7.8 0 0 19.4-17.5 19.3-45z"/>
			<path id="&lt;Path&gt;" class="s0" d="m119.3 390.6c0 0 3.3 1.4 5.4 5.5 4.4-5.4 12.8-17 13.4-27.9q-1.7 0.9-3.8 1.7c0 0-3.7 12.8-15 20.7z"/>
			<path id="&lt;Path&gt;" class="s0" d="m132.3 316.9c-2.3 4.7-0.3 6 0.9 8.1 1.2 2.2 2.4 4.1 2.3 5.5 0 0 3.2-3.8 7.9-3.2-0.2-2.9-1.5-9.5-9.5-16.5-0.3 2.2-0.8 4.4-1.6 6.1z"/>
			<path id="&lt;Path&gt;" class="s0" d="m146.8 333.4c0.8-1.3-1.6-4.6-4.8-3.1-3.1 1.4-4.1 7.2-0.8 9.6 3.4 2.4 8.8-0.5 9.8-5.9 1.1-5.3-2-18.1-7-23.5-5-5.5-9.3-8.1-9.3-8.1 0 0-0.1 2.3-0.3 5.2 10.8 8.8 11.7 17.6 11.7 20.6 3.8 2 2.7 6.3 1.1 7.5-1.8 1.3-2.9-0.6-2.7-1.4 0 0 1.5 0.5 2.3-0.9z"/>
			<path id="&lt;Path&gt;" class="s0" d="m152 352.1c6.5-10.5 9.1-24.2 5.9-33.9q-0.3-1-0.7-2.1c-3.1-6-9-7.8-9-7.8 0 0 2-1 5.1-0.5q-0.8-1.5-1.7-3c-6.7-10.6-16-12.4-16-12.4 3-1.4 7.3-0.3 7.3-0.3-7.8-9.4-14.3-11.6-17.8-12q-0.9 0.1-1.8 0.2c3 2.1 10.2 8.3 11.2 20.4 3.6 1.8 13.4 7.6 16.9 19.5 4.3 14.6-0.9 23-8.5 22.3-7.6-0.8-4.8-11.9-4.8-11.9-11.3 9-3.8 17.8-3.8 17.8 3.4-3.7 7.9-0.1 7.9-0.1-7.9 0.1-8.1 5.7-8.9 12.2-0.7 6.5-13.9 4.6-13.9 4.6 11.7 5.2 22 0.5 29.2-8.2 0.4-0.8 0.7-1.7 0.8-2.5 0.5-3.8-2.3-5.2-2.3-5.2 0 0 3.2-0.3 4.9 2.9z"/>
			<path id="&lt;Path&gt;" class="s0" d="m119.2 329.8c1.3 0.7 2.1 3.1 2.1 3.1-0.7-4.6 1.4-6.4 4.6-10.1q0.4-0.5 0.7-0.9c1.6-1.5 3.4-7.8-0.9-10.8 0 0 3.8-0.2 5.5 3.3 0.8-2.3 1.3-4.7 1.6-7 0.3-2.7 0.1-5.4-1.1-6.8-3-3.2-6.4-3.7-6.4-3.7 0 0 3.8-1.7 6.6-0.5 0 0-2.4-13.6-16.6-15.4q-1.9 0-3.7 0 0.2 0.1 0.4 0.2c1.1 0.6 2.4 1.2 3.6 2.2q1.8 1.4 3.4 3.3c2 2.6 3.6 5.8 4.3 9.3 0.3 1.7 0.3 3.5 0.1 5.2v0.6l-0.2 0.7c-0.1 0.5-0.2 0.9-0.3 1.3-0.3 0.8-0.6 1.6-0.9 2.3-0.7 1.5-1.5 2.8-2.3 4q-1.1 1.7-2.1 3.2c-0.6 1-1.1 1.8-1.4 2.6-0.2 0.8-0.3 1.5-0.1 2.1 0.1 0.7 0.3 1.2 0.4 1.5q0.3 0.6 0.3 0.6c-1.1-0.2-4.1-1.9-3.9-4.4 0.3-2.6-1.4-6.2-1.4-6.2-0.2 3.2-4.2 6.2-5.1 9.1-0.9 2.9 1.2 7.3 3.9 9.5 2.8 2.1 2.6 5 0.4 8.8-2.2 3.8-0.4 8.3-0.4 8.3-0.3-6.1 6.7-7.6 7.7-9.7 1-2.1-0.5-5.1-1.2-6.8-0.6-1.7 0.8-3 0.8-3-0.3 1.1 0.2 3.4 1.6 4.1z"/>
			<path id="&lt;Path&gt;" class="s0" d="m113.7 311.4c0 2.1 0.2 3.8 0.6 5q0-0.4 0-0.8c0.1-1.2 0.5-2.4 1.1-3.5 1.1-2.3 2.8-4.6 3.9-7.2 0.2-0.6 0.5-1.3 0.7-2 0-0.3 0.1-0.6 0.2-1l0.1-0.4v-0.6c0.1-1.4 0.1-2.9-0.2-4.3q-0.5-2.2-1.4-4.2c-0.7-1.3-1.5-2.5-2.3-3.6-0.9-1.1-1.8-2.1-2.8-2.9-0.9-0.7-2-1.3-3.1-1.9-2.1-1.2-3.8-2.2-5-2.9q-0.3-0.2-0.6-0.4c-15.9-1.2-25.6-6.2-25.6-6.2 3.4 5.2 15.5 12.9 26.2 18.7 10.7 5.8 8.5 11.5 8.2 18.2z"/>
			<path id="&lt;Path&gt;" class="s0" d="m102.3 268.2q-0.1-0.2-0.3-0.5c-1.4-1.5-2-3.1-2.1-4.8-4.4-1.3-16.8-5.4-25.4-10.5q0.3 1.9 0.2 4.2c4.6 2.5 17.5 9.3 27.6 11.6z"/>
			<path id="&lt;Path&gt;" class="s0" d="m119.6 253.1c-3.1-0.6-8.3-0.5-11.8 1-2.7 1.4-4.2 5-4 7.6 0.4 5.6 4 7.2 8.2 6.4 4.3-0.9 5.7-4.5 3.5-6.7-2.3-2.3-5.9-0.3-5.7 2.6 0 0-2.2-3.8 1.2-5.6 3.4-1.7 7.8 1 7.6 6.6-0.2 3.9-5 7.4-10.2 6.6q0 0-0.1 0c-10.7-0.1-27.5-8.6-34-12.1-0.5 2.6-1.6 5.6-3.5 8.8 0 0 24.5 18 60.9 6.9 0 0-2.6-0.6-3.9-4.4 0 0 1.5 1.3 3 2.1 1.9 1 6.1 0.8 9-1.4 3.3-2.6 22.6-19.7 12.5-25.4 0 0 4.5 4.9-1 8.7-5.4 3.7-11.6 2.8-15.7 2.1-4-0.7-7.4 4.2-7.9 7.1 0 0-1.7-5.4 2.4-9.9 0 0-6.3 0-10.5-1z"/>
			<path id="&lt;Path&gt;" class="s0" d="m100.1 260.1c0.3-1 0.6-2.1 1.1-3-5-1.1-13.5-6.7-19-10.6-7.3-5.2-9.3-7.5-9.3-7.5 0 0-2.9 1.8-5.4 2.4 0 0 3.6 2.3 5.7 7 7.8 5.5 21.7 10.1 26.9 11.7z"/>
			<path id="&lt;Path&gt;" class="s0" d="m38.2 240.7c7 9.9 12.4 14 15.1 15.7q0.2-0.4 0.4-0.8c1.6-2.5 2.8-4.5-2.6-10.5-7.5-0.9-12.9-4.4-12.9-4.4z"/>
			<path id="&lt;Path&gt;" class="s0" d="m55 258.8c-0.8 1.8 0.5 4.3 1.8 6.1 0.8-1.6 2.3-3.1 3.7-4.7l0.8-0.9c2.8-3.1 0.9-7.1-0.5-9.3-0.9-1.5-2.1-3.4-3.1-5q-1.5 0.2-3 0.2c4.4 5.7 3.4 8.5 1.3 11.8-0.3 0.6-0.7 1.2-1 1.8z"/>
			<path id="&lt;Path&gt;" class="s0" d="m72.2 255.4c0.5-7.3-6.9-12.6-6.9-12.6q-2.4 1.1-4.8 1.7c0.9 1.4 1.8 2.9 2.6 4.1 3 4.7 3.1 9.3 0.2 12.5l-0.8 0.9c-1.7 1.9-3.7 3.5-3.7 5.4l-0.2 2.6-2.1-1.4c-0.1-0.2-3-2.9-4.1-6.2-2.4 8 3.6 14.9 6 15.7 3 0.9 8.2-0.5 8.8 2.2 0.6 2.7 3.7 3.4 3.7 3.4-1.6-0.9-1.6-2.4-0.3-4.5 1.4-2 0.1-3.7-2.7-4.6-2.9-0.9-2.4-3.3-0.7-5.5 1.6-2.3 4.5-6.4 5-13.7z"/>
			<path id="&lt;Path&gt;" class="s0" d="m41.8 239.6c11.6 4 20.5 1.3 20.5 1.3-2.9-1.5-2.9-3.9-2.9-3.9 10.1 7.9 19.5-7.5 19.5-7.5-7.9 0.9-9.7-4.5-12.1-5.8-2.3-1.4-4.8 2.8-4.8 2.8-0.7-3 3.4-5.4 3.4-5.4-3.6-2.1-9.7-4.5-15.4 0-5.7 4.6 0.3 11.7 4.2 10.8 3.9-0.8 5-5.6 5-5.6 1.4 7.8-5.5 10.4-16.5 5.2-11-5.2-19.4-25.9-19.4-25.9-5 19.1 9 28.8 9 28.8-0.9-2.4 1.5-6.9 1.5-6.9 0 0-3.6 8.1 8 12.1z"/>
			<path id="&lt;Path&gt;" class="s0" d="m25 199.5c0.2 1.9 0.6 4.8 1.6 8 5.5 13.7 17.9 21.3 17.9 21.3-0.2-2.1 0-3.9 0.5-5.4-3.9-2.3-16.8-10.9-19.8-24.2q-0.1 0.1-0.2 0.3z"/>
			<path id="&lt;Path&gt;" class="s0" d="m16.7 175.7q0.7-0.2 1.4-0.2c-1.3-4.1-4.2-15.2-3-30.4q-1.4-1.6-2.7-3.3c-0.5 7-0.6 20.1 3.6 34.2q0.3-0.2 0.7-0.3z"/>
			<path id="&lt;Path&gt;" class="s0" d="m8.1 169.4c-8.8 14.2 3 30.5 3 30.5 0.9-2.7 3.3-5.1 3.3-5.1-4 11 4.3 21.9 4.3 21.9q0-0.4 0.1-0.8-0.2-1.7-0.1-3.7c0-2 0.2-4.2 0.7-6.4q0.4-1.7 0.9-3.4c0.2-0.6 0.4-1.2 0.7-1.8 0.3-0.6 0.5-1 0.8-1.7 1.1-2.1 2.1-4.2 2.8-6.5q0.6-1.6 0.9-3.4 0.3-1.7 0.1-3.3l-0.1-0.9c0-0.2-0.1-0.4-0.2-0.7 0-0.1 0-0.2-0.1-0.4l-0.1-0.4-0.2-0.4-0.1-0.2-0.1-0.2c-0.5-1-1.1-1.9-1.9-2.6-1.5-1.5-3.5-2.1-5.4-1.6-0.9 0.2-1.8 0.7-2.5 1.3l-0.6 0.6-0.1 0.1-0.1 0.1-0.2 0.3c-0.2 0.1-0.3 0.3-0.4 0.5l-0.2 0.3-0.1 0.3c-0.2 0.4-0.2 0.9-0.4 1.3 0 0.4-0.1 0.9 0 1.3-0.1 0.9 0.1 1.8 0.4 2.6 0.5 1.6 1.8 2.7 2.8 2.8 0.1 0 0.1 0.1 0.2 0h0.3 0.3 0.1 0.1c0.3-0.1 0.6-0.2 0.9-0.3 0.6-0.2 1.1-0.5 1.4-0.9 0.8-0.6 1-1.5 1-2.1 0-0.6-0.1-0.9-0.1-0.9 0 0 0.2 0.3 0.3 0.9q0.1 0.4 0 1.1c0 0.5-0.2 1-0.6 1.5-0.4 0.5-0.9 1-1.5 1.3-0.3 0.3-0.7 0.4-1 0.5q-0.3 0.1-0.6 0.2l-0.3 0.1c-0.1 0-0.3 0-0.4 0-1.1 0.1-2-0.3-2.8-1-0.8-0.6-1.5-1.5-1.9-2.4q-0.7-1.5-0.9-3.2c-0.1-1.2 0-2.4 0.4-3.7l0.2-0.4 0.2-0.5c0.2-0.2 0.3-0.6 0.5-0.8l0.3-0.4 0.2-0.2 0.1-0.1v-0.1c0 0 0 0.1 0.1-0.1l0.6-0.6q0.3-0.2 0.5-0.4c-5.4-17.5-4.2-33.4-3.6-39-5.4-8.9-7.7-18.2-7.7-18.2-2.9 19.6-0.2 53.7-0.2 53.7 1.5-2.7 6-4.4 6-4.4z"/>
			<path id="&lt;Path&gt;" class="s0" d="m27.6 193.4q-0.6 1.7-1.3 3.3c2.1 4.2 9.6 18.4 19.9 24 2.1-3.2 5.3-4.3 5.3-4.3-26.1-19.4-27.7-64.5-27.7-64.5-2.3-1.1-4.3-2.6-6.2-4.3-0.8 15.2 2.6 25.8 3.4 28.1 1.4 0.4 2.7 1.1 3.8 2.1 1.1 1 1.9 2.1 2.6 3.4l0.1 0.2 0.1 0.3 0.2 0.5 0.2 0.4c0.1 0.1 0.1 0.4 0.2 0.5 0.1 0.4 0.2 0.8 0.3 1.2l0.1 1c0.2 1.4 0.1 2.9 0 4.2q-0.4 2-1 3.9z"/>
			<path id="&lt;Path&gt;" class="s0" d="m13.2 134.3c-0.3-3.1 0-4 0-4 3.7 18.9 20.2 16.6 20.2 16.6 0 0-14-6.7-21-26.2-7-19.4 5.2-46.2 5.2-46.2-9 7.2-11.1 27.5-11.1 27.5 1.2-1.6 2.7-1.6 2.7-1.6-5.9 5-2.6 19.7-2.6 19.7 0.8-1.5 2.9-3.7 2.9-3.7-5.8 8 3.7 17.9 3.7 17.9z"/>
			<path id="&lt;Path&gt;" class="s0" d="m20.9 105c-5.1-7.1-4.4-19.1-4.4-19.1-5.3 7.1-2.9 22.2-2.9 22.2 1.2-1.7 3.7-2.4 3.7-2.4-6.4 3.5-1.4 14.6-1.4 14.6 0.6-2.6 3.7-4.4 3.7-4.4-6.9 8.3 2.5 18.8 8.1 19.5 5.5 0.6 7-4.9 7-4.9-7 4.9-9.5-3.7-8.2-9 1.2-5.4-0.4-9.4-5.6-16.5z"/>
			<path id="&lt;Path&gt;" class="s0" d="m63.7 31.1c-4.7 0.8-9.6 3.4-13.9 6.4-3.3 2.9-6.7 6.2-10 9.8q-0.3 0.2-0.5 0.5c2.2-0.5 5.2-1.4 5.2-1.4-2.2 0.7-4.6 1.9-7 3.4-15.7 17.9-19.5 30.8-18.4 40.4 3.3-4 7.3-2.3 7.3-2.3-5.5 1.2-6.5 4.8-5.8 8.6q0.8 2.2 1.9 4.1c5.7 10.4 12 10.9 12 10.9 0 0-5.2-3.7-2.4-10.1 2.7-6.5 5.2-9.2 1.7-13.4 0 0 4.2 0 3.7 5.8 0 0 9.7-6.4 9.6-15.1-0.2-8.8-10.4-10.9-14.7-8-4.3 2.9-4.4 8.2-1.7 11 2.7 2.7 8.7 1.4 8.3-3.8 0 0 1.1 6.8-6.8 7.8-7.8 1-6.6-11.5-2.7-17 4.1-5.8 17.4-22 37-29.5 0 0 9.8-16 26.7-26.6 0 0-16.8 4.5-35.6 18.6 3.5-0.7 6.1-0.1 6.1-0.1z"/>
			<path id="&lt;Path&gt;" class="s0" d="m65.1 42.1c0 0-18.9 9.7-31.6 25.5 0 0 3.2-0.5 6.5 0.2 3.1-5.1 9.4-13 21.4-18.3 1-2.6 2.3-5.4 3.7-7.4z"/>
			<path id="&lt;Path&gt;" class="s0" d="m45.6 70.8c0 0 7-10.9 13.3-14.2 0 0 0.4-1.4 1.2-3.5-9.4 4.8-14.7 11.2-17.4 15.6 1.1 0.5 2.1 1.2 2.9 2.1z"/>
			<path id="&lt;Path&gt;" class="s0" d="m63.6 61.5c-5.4 2.6-2.5 11.4-2.5 11.4 0.5-1.5 5.6-3.9 5.6-3.9 0 0-5.6 3.9-1.8 12.5 3.7 8.7 13.8 11.1 13.8 11.1-6.1-2.6-6-9.3-4.8-12.3 1.3-3-1.8-5.5-1.8-5.5 2.4 0.3 3.6 3.9 3.6 3.9 0.3-0.9 2.4-3.5 4.8-5.2 2.4-1.7 3.4-8.6 0.1-10.6-3.3-2.1-6.3-1.4-8.9 0.4-2.6 2-1.6 7.3 1.1 7.4 3.6 0.2 3.3-2.8 3.3-2.8 1.2 3.8-2.3 4.8-4 4.6-1.7-0.1-5.8-4.4-2.6-9.2 3.2-4.8 11.6-3.2 11.6-3.2-4.2-1.2-6.9-6.2-6.9-6.2-0.6 1.7-5.2 4.9-10.6 7.6z"/>
			<path id="&lt;Path&gt;" class="s0" d="m85 61.5c-1.2 2.2-1.5 5.1-1.2 8q0.1-0.1 0.1-0.1 0 0.1 0 0.2c0.3 2.3 1 4.7 2.1 6.7 1.2-2.8 3.9-6.4 8.2-9.7 6.6-5.1 10.2-10.7 9.1-16.7-0.5-3.3-3-6.5-5.1-8.7-0.8-0.4-1.7-0.7-2.6-1q-0.4-0.1-0.8-0.2-0.2-0.1-0.3-0.1 0.8 0.6 1.5 1.4c2.2 2.5 3.2 6.1 2.8 10-0.5 5.8-6.2 10-13.8 10.2z"/>
			<path id="&lt;Path&gt;" class="s0" d="m84.1 22.6c2.3 0 4.5 1.3 4.5 1.3-3.6-0.5-7.2 1.3-9.4 3.3q-1.3 1.3-2.5 2.6-0.3 0.3-0.6 0.6c-7.8 9-13.8 19.9-15.7 29.7q0.8-0.7 1.9-1.3c7-3.5 10.4-5.5 10.6-7.1l0.3-2.7c0-1.8 0.3-3.5 0.9-5.1 0.9-2.5 2.3-4.8 3.9-6.9 1.6-2 3.5-3.9 5.4-5.6q3-2.5 6.3-4.6c1.1-0.7 2.2-1.3 3.4-1.9q1.7-0.9 3.5-1.6 3.7-1.5 7.5-2.4 3.8-0.9 7.7-1.3 1.9-0.2 3.9-0.3 1.2 0 2.5 0c8.9-9 20.7-13.2 20.7-13.2 0 0-12.3-0.2-26.2 3 3.1 1.5 4.3 4.3 4.3 4.3 0 0-4-3.9-11.8-2.2-3.4 1.1-6.8 2.4-10.1 4-2.7 1.5-5.3 3.1-7.3 4.5q-1.9 1.3-3.7 2.9z"/>
			<path id="&lt;Path&gt;" class="s0" d="m110 28q-2.1 0.3-4.2 0.8-2.1 0.5-4.1 1.1c-2.7 0.9-5.3 2-7.7 3.4q-1.8 1.1-3.4 2.5-0.3 0.3-0.6 0.5 0.1 0 0.1 0c0.8 0 1.6-0.1 2.3 0 0.7 0.1 1.5 0.1 2.2 0.3q0.5 0.1 1 0.2 0.2 0.1 0.5 0.2c6.7-6.7 14.4-5.6 14.4-5.6q0.6-1.9 1.6-3.7-1.1 0.1-2.1 0.3z"/>
			<path id="&lt;Path&gt;" class="s0" d="m115.9 21.9q-0.1 0-0.2 0-1.8 0.1-3.7 0.2-3.7 0.3-7.4 1.1-3.7 0.8-7.2 2.1-1.7 0.6-3.4 1.5c-1.1 0.5-2.2 1.1-3.3 1.7-2.1 1.3-4.2 2.7-6.1 4.3-1.9 1.6-3.7 3.4-5.3 5.3q-1.6 1.9-2.8 4.1c-0.7 1.7-1.4 3.7-1.4 6.1 0.1 1.4 0.3 2.7 0.7 3.8 1.1 2 4.2 6.9 8.8 6.8 6.4-0.2 11.2-3.4 11.6-7.9 0.3-3.1-0.6-6-2.2-7.9-0.9-1.1-2.1-2-3.5-2.4-0.6-0.5-1.5-0.5-2.3-0.6h-0.2q0 0-0.1 0c-2.1 0-3.9 1.4-4.5 3.3q0 0.2-0.1 0.3c-0.3 0.9-0.2 1.9 0.3 2.8q0 0 0 0 0 0.1 0 0.1 0.1 0.2 0.2 0.3 0.2 0.5 0.6 0.9 0 0.1 0.1 0.2 0.1 0 0.1 0 0.5 0.6 1 0.9 0.3 0.1 0.5 0.2l0.4 0.1c0.1 0.1 0.2 0.1 0.3 0.1 0.2 0 0.4 0 0.7 0.1q0 0 0.1 0 0.1 0 0.2 0 0.6 0 1.2-0.2 0.3 0 0.6-0.1 0-0.1 0.1-0.1 0.1 0 0.1-0.1c0.8-0.3 1.4-0.8 1.9-1.5q0 0 0 0.1 0.1 0.3 0.2 0.6c0 0.5 0 1.2-0.4 1.7-0.6 1.1-1.8 1.7-3 1.9-0.7 0.2-1.3 0.2-2 0.2-0.2-0.1-0.4-0.1-0.6-0.1l-0.4-0.1h-0.1-0.1-0.1l-0.1-0.1-0.2-0.1c-0.2-0.1-0.5-0.1-0.6-0.2-1.4-0.8-2.5-1.9-3.2-3.3-0.8-1.4-1.3-3.3-0.8-5.1l0.2-0.7q0.2-0.3 0.3-0.6 0.2-0.3 0.4-0.6l0.4-0.5 0.4-0.5q0.2-0.3 0.5-0.5c0.3-0.2 0.6-0.6 1-0.8l1.1-0.7c0.3-0.2 0.6-0.3 1-0.4l0.1-0.1v-0.1c0.5-0.8 0.9-1.4 1.5-2q0.8-0.9 1.6-1.6 1.8-1.6 3.8-2.8c2.6-1.6 5.4-2.7 8.3-3.7q2.1-0.6 4.3-1.1 2.2-0.5 4.4-0.9 2.1-0.3 4.2-0.5 1-1.5 2.1-2.9z"/>
			<path id="&lt;Path&gt;" class="s0" d="m171.6 19.3q0.2 0.2 0.3 0.4c1 1.3 1.4 3.6 1.5 5.9 6 2.2 18 7.3 28.7 15.3 3.2 0 5.3 0.6 5.3 0.6-0.7-0.7-1.3-2.1-1.6-3.7-6.1-4.1-20-13-34.2-18.5z"/>
			<path id="&lt;Path&gt;" class="s0" d="m197.9 41.2c-9.2-6.3-18.9-10.6-24.4-12.7 0 2.9-0.2 5.2-0.2 5.2 6.7 2.2 18.7 9 18.7 9 2.1-0.8 4-1.3 5.9-1.5z"/>
			<path id="&lt;Path&gt;" class="s0" d="m140.9 22.4c0.4 0 1 0.1 1.6 0.3 1.4-0.9 7.9-4.2 20.3-1.5-0.5-1.4-1.4-2.8-2.6-4q-0.4-0.3-0.6-0.6-0.3-0.1-0.6-0.1c-0.9-0.1-2-0.2-3.2-0.3-1.3-0.1-2.7-0.2-4.2-0.2-1.6 0.1-3.2 0.1-5 0.3-1.7 0.2-3.5 0.6-5.3 1q-0.7 0.3-1.3 0.5l-0.7 0.2-0.6 0.3q-0.7 0.3-1.3 0.6-0.6 0.4-1.2 0.8l-0.3 0.1-0.1 0.1h-0.1v0.1l-0.6 0.5c-0.4 0.3-0.9 0.6-1.2 1-0.3 0.3-0.6 0.6-0.9 0.9-0.3 0.4-0.6 0.7-0.8 1.1-0.2 0.4-0.5 0.7-0.6 1.1 0 0.2-0.1 0.4-0.2 0.6q0 0.3-0.1 0.5c0 0.8 0 1.5 0.4 2.3 0.3 0.7 0.9 1.4 1.5 1.9 0.6 0.6 1.3 1.1 2 1.3 1.4 0.6 3.1 0.5 4.5-0.1 1.4-0.6 2.4-1.6 2.9-2.7q0.1-0.2 0.1-0.4l0.1-0.1q0-0.1 0 0v-0.1l0.1-0.3v-0.2-0.2c0-0.1 0.1-0.2 0-0.3q0-0.7-0.3-1.3c-0.5-0.8-1.3-1.4-2-1.8-0.8-0.3-1.5-0.4-2-0.4-0.2-0.1-0.4 0-0.5 0q-0.2 0-0.2 0c0 0 0.2-0.2 0.6-0.5 0.5-0.2 1.3-0.5 2.4-0.4z"/>
			<path id="&lt;Path&gt;" class="s0" d="m145.5 28.1l-0.1 0.2v0.2 0.1l-0.1 0.1q-0.1 0.4-0.2 0.7-0.1 0.3-0.3 0.6 0.6-0.1 1.1-0.1 0.1-0.1 0.1-0.2c3.1-0.8 14 0.8 14 0.8 2.2-2.1 3.2-4.3 3.3-6.4-10.3-2.5-16.3-0.6-18.5 0.5 0.3 0.5 0.6 1.2 0.7 2 0.1 0.2 0 0.5 0 0.8v0.4z"/>
			<path id="&lt;Path&gt;" class="s0" d="m143 12.4c0 0-6.1-3.2-12.1-0.3-6 3-15 13.3-15 13.3 2.2-0.7 6.1 1.4 6.1 1.4 0 0-8.1-0.8-10.4 7-2.3 7.7 1.2 17.3 3.3 18.8 2.1 1.5 2.3 6.1 2.3 6.1 1.7-5-1.6-6.4-2.1-10.7-0.6-4.4 4.2-10.1 7.5-11 3.3-0.9 10.2 1.7 15.7 0.1 3.4-0.9 5.5-3.5 6.7-5.3-3 2-4.7 2.4-5.6 2.4q-0.8 0.3-1.7 0.4c-1.1 0-2.4-0.1-3.5-0.5-2.4-0.9-4.2-2.5-5.4-4.8-0.6-1.1-0.8-2.5-0.7-3.9l0.1-1c0.1-0.3 0.2-0.6 0.3-0.9 0.2-0.7 0.6-1.2 0.9-1.7 0.3-0.6 0.7-1 1-1.5 0.4-0.5 0.9-0.9 1.3-1.3 0.5-0.5 0.9-0.8 1.3-1.1l0.6-0.5 0.1-0.1 0.1-0.1 0.2-0.1 0.4-0.2q0.7-0.5 1.4-0.9 0.8-0.4 1.5-0.7l0.8-0.4 0.8-0.2q0.7-0.3 1.5-0.5c2-0.6 4-1 5.9-1.1 0.9-0.1 1.9-0.1 2.7-0.2 0.9 0 1.8 0 2.6 0 1.6 0.1 3.1 0.2 4.4 0.3q1.6 0.2 2.8 0.4c0.3-2.1 2.3-3.6 2.3-3.6 0.6 1.7 1.9 3 3.5 4.2 15.7 4.3 32.4 14.5 40.6 20-0.4-4.3-0.2-8.7-0.2-8.7-2.5-0.4-6.1-3-6.1-3 1.5 3 0.4 5.7 0.4 5.7 0.2-4.7-6.8-11-13-13-6.3-2-12.2-4.6-12.2-4.6 1.9 1.8 1.9 6.9 1.9 6.9 0 0-4.3-9.3-15.3-11.2-11-1.9-23.8 2.9-23.8 2.9 3-0.3 6.1 3.2 6.1 3.2z"/>
			<path id="&lt;Path&gt;" class="s0" d="m160.3 58.8q0.2-0.2 0.6-0.7c4.8-7.8 3.2-16.1 3.2-16.1-4.2 5.1-4.5 10.6-4.3 14 0.2 0.9 0.3 1.6 0.4 2.2q0 0.3 0.1 0.6z"/>
			<path id="&lt;Path&gt;" class="s0" d="m164.9 16c-3.7-1.2-4-2.8-4-2.8-0.4 2.2 1.3 3.9 3.7 5.2 2.4 1.4 2.5 6.8-0.7 12.1-3.2 5.4-8.4 17.1-8.4 17.1 0.8 0.5 1.5 1.3 2 2.1 0.7-3 2-6.2 4.5-9.4l3.7-4.5 1 5.7c0.1 0.3 1 5.1-0.5 10.9 1.2-1.5 2.3-2.9 2.9-3.9 1.8-3.3 2-8.4 2-18.5-0.1-10.2-2.4-12.7-6.2-14z"/>
			<path id="&lt;Path&gt;" class="s0" d="m167 82c-2.3 4.8-11.1 9.8-14.3 10.1-3.1 0.2-9.3 2.7-8 6.9 1.4 4.2 5.2 4.1 6.4 2.9 1.2-1.2 0.2-3.6-1-3.7-1.2-0.2-1.4-1.7-1.4-1.7 2.2-1.2 5.8-0.7 6 3.2 0.3 3.7-6.2 7.9-9.7 4.3-1.7 2.7-5 4.2-9.3 4.2-2.5 0-4.8-1.1-7-2.1-2.4-1.1-4.9-2.2-7.7-2.1-4.9 0.2-6 5-6.1 5.2l-0.1 0.6-0.6 0.1q-1.7 0.3-2.5 0.9-0.2 0.1-0.3 0.2c-0.8 0.8-0.1 3.4-0.1 3.4-2.7-0.5-4.9-0.2-7.5 1.3-1.7 0.9-1.6 2.9-1.3 4.3l-0.5 0.1q-0.8 0.2-1.6 0.1c-1.7 0-3.1-0.6-4.3-1.4-2.2-0.6-2.7-1.9-2.7-1.9 0.1 2.4 1.4 4.2 1.4 4.2-2.4 0.1-4.7-3.1-4.7-3.1 2 6.5 6.5 5.2 6.5 5.2 0 0 0 0.6 2.4 2.5 2.3 2 7.3 0.3 7.3 0.3-1.5 0.8-2 4.1-2 4.1 0.9-1.6 3-1.9 4.8-0.4 1.8 1.5 3.1 1.5 3.1 1.5-1.3 0.5-1.7 2.7-1.7 2.7 0 0 0.9-1.8 3.3-1.6 2.4 0.2 3-0.4 8-1 4.9-0.5 9.2 2.8 9.6 6.2 0.3 2.5 1.2 4.9 1.7 6-0.4-1.4 0-3.5 0.4-6.4 0.5-3.4-6.5-7.4-12.6-7.4-6.1-0.1-9.1-3.8-9.7-7.4-0.5-3.6 7.5-12.3 13.1-12.4 5.7-0.1 14.5 2.6 26.8-3.7 12.3-6.3 15.9-24.2 15.9-24.2z"/>
			<path id="&lt;Path&gt;" class="s0" d="m133.1 143.5c0.2 0.4 0.3 0.6 0.3 0.6q-0.2-0.3-0.3-0.6z"/>
			<path id="&lt;Path&gt;" class="s0" d="m147.3 128.6c-2.9 12.2-8 11.1-8 11.1 0.5 4.8 6.2 5.4 6.2 5.4 6.6-6.5 1.8-16.5 1.8-16.5z"/>
			<path id="&lt;Path&gt;" class="s0" d="m137.3 146.9c4.9 1.9 8.5-0.6 8.5-0.6-1.8 0.6-4.2 0.3-6.7-2.1-2.5-2.4-1.3-6.6-2.7-11.4-1.5-4.8-15.9-7.2-15.9-7.2 0 0 4.5-2.6 13.1 1.7 8.6 4.2 11-0.5 11-0.5-4.9 2.6-7.7-1.6-11.1-4.5-3.4-2.8-11.6-3.5-13.9-2.2-2.2 1.3-3 0.7-3 0.7 7.1-10.6 25.2-4.7 25.2-4.7 0 0 1.8-2.6 5.5-2.9 3.7-0.3 3.1 2.3 3.1 2.3 2.3-3 2.6-8.1 2.6-8.1-7.3 5.8-21.2 4.8-27.5 4.4-6.2-0.3-11.8 5-11.6 9.2 0.3 4.1 2.1 7 9.5 7.2 7.5 0.2 11.5 5.3 11.6 7.3 0.1 1.9-2.6 9.4 2.3 11.4z"/>
			<path id="&lt;Path&gt;" class="s0" d="m143.2 116.9c0 0-0.5 5.8-3.8 8.5 0 0 9.2-5.8 9.7-8.3 0.4-2.5-2.3-3.1-5.9-0.2z"/>
			<path id="&lt;Path&gt;" class="s0" d="m116.1 79.3c0 0-4.6 4.5-10.9 7.1-6.3 2.6-24.9 13-23.2 30.4 1.8 17.3 16.5 22.2 24.3 21 7.8-1.3 14.1-2.6 16.3-1.8 2.2 0.7 3.9 1.8 3.3 3.9-0.7 2.1-0.4 5.7 0.9 7.9 1.3 2.3 4.2 3.8 7.8 3.7 3.5-0.2 4.1 3.9 2.4 6.3 0 0 2.2-4.5-1.6-4.4-3.7 0.1-3.9 0.4-5.9-1.7 0 0-3.3-0.9-6.9 3.1-3.6 4-7.8 12.6-2.9 18.9 4.9 6.3 7.1 7.5 5.3 12.8 0 0 4.3-4.3 1.5-8.7-2.8-4.3-3.3-10.9 3.3-11.6 6.6-0.7 14.5-3.5 15.7-9 1.3-5.5-2.9-8.2-2.9-8.2 0 0-11-0.7-12-6.4-1-5.7-2.4-9.3-6.6-9.9-4.2-0.6-6.9 0.8-9 1-2.1 0.1-4.3 0.5-5.2 1.9 0 0-0.6-2.6-0.1-3.6 0 0-2.4-2.1-3.2-1.7-0.7 0.4-2.7 3.6-2.7 3.6 0 0-1.3-3.9-1.1-5.9 0 0-3.8 0.7-7-3.3 0 0-7.6 0.8-7.8-10.6 0 0-1.3-7.4 5.6-13.8 7-6.3 11.3-6.6 11.3-6.6 0 0 1.1-4.5 4.7-5 3.6-0.6 4 3.1 2.8 4.6 0 0 0.3-2.7-1.7-2.7-1.9 0-3.9 3.1-2.7 5.5 1.2 2.4 5.5 1.9 8.1-0.2 2.5-2.1 3.9-6.7 2.1-9.8 0 0-0.3 1.2-1.3 1.6 0 0 1.4-5.1-0.7-8.4z"/>
			<path id="&lt;Path&gt;" class="s0" d="m91.4 115.8c0-1.6 0.2-2.9 0.5-3.9 0.3-8.2 8.2-13.2 13.5-15.6-0.3-0.6-0.3-1.1-0.3-1.1-20.1 10.4-13.7 20.6-13.7 20.6z"/>
			<path id="&lt;Path&gt;" class="s0" d="m94.6 108.5c5.4-8.1 15.1-9.1 15.1-9.1-1.6-0.3-2.6-0.9-3.3-1.6-4.1 1.9-10.1 5.4-12 10.9q0.2-0.2 0.2-0.2z"/>
			<path id="&lt;Path&gt;" class="s0" d="m120.6 91.8c-0.3 3.8-5.3 6.5-5.3 6.5 5 0.2 8.9 0.1 8.9 0.1-1.3 1.3-4.1 2.3-10.7 2.4-6.5 0.1-16.9 4.9-18.1 10.3-0.6 2.3 0 4.2 0.8 5.5 1 1 2.5 1.9 4.5 1.8-0.2-1.3 0.3-3.2 2.6-4.4 2.2-1.3 4.6-1.4 6-1.4 0-0.6 0-1.3 0.3-2q0.9-1.8 3.7-2.4c0.8-2.2 3-5.8 7.6-6 3.3-0.1 5.9 1.1 8.5 2.3 2.2 0.9 4.2 1.9 6.3 1.9 4.1 0 6.9-1.4 8.1-4.1-0.8-1.6-0.9-3.2-0.6-4.8h-0.2c1-5.6 6.4-11.6 11.1-14.8q1.3-0.9 1.6-2.4c0.1-1-0.1-2.1-0.4-3.1-3.2-2-3.9-7.7-2.6-10.4 1.3-2.9 5.2-5.1 3.7-11.9-1.6-6.7-10-7.7-10-7.7 5.2 1 6.5 9.6 3.7 11.7-2.9 2.1-2.5 6.1-2.5 6.1-0.6-1.7-4-2.4-4-2.4 0 0 2.5 1.6 0.7 5.2-1.8 3.6 0.5 6.6 2.5 7.5 1.9 0.9 1.4 1.9 1.4 1.9 1.1-0.8 1.3-2.8 0.2-3.4-1-0.6-1-1.8 0.8-1.8 1.8 0 3.4 4.5 1 6.2-2.4 1.6-5.3-0.2-5.3-0.2 3.5 11.8-4.2 20.1-11.9 21-7.8 1-12.4-7.2-12.4-7.2z"/>
			<path id="&lt;Path&gt;" class="s0" d="m161.8 60.1c-1.9 1.1 0.9 4.4 0.9 4.4-2.7-0.4-3-3-3-3 0 0-5.2 3.7-5.1 8.3 0.1 4.7 4.1 6.8 6.9 5.6 2.9-1.1 3.5-5.8 1-6.7-2.5-0.9-3.3 1.8-3.3 1.8-0.7-2 1.1-3.7 3.5-3.7 2.4 0 5 3.3 3.6 6.6-1.2 3-5.2 5.3-9 4.6 0.2 0.9 0.3 1.8 0.1 2.6q-0.4 2.2-2.3 3.6c-2.5 1.7-5.2 4.2-7.3 7.1 3.9-2.5 5.4-1.2 13.7-6.3 8.2-5.2 10.3-19.5 10.3-19.5-1.8 1.6-3.8 1.6-3.8 1.6 7.4-4.1 6.7-22.8 6.7-22.8-3.4 10.2-10.9 14.6-12.9 15.8z"/>
			<path id="&lt;Path&gt;" class="s0" d="m126.5 76.1c-0.5 2.4-3.2 4-2.8 7.3 0 0 4.5-5.6 11.7-4.5 7.1 1.1 7.8 9.8 7.8 9.8 0 0 2.4-5.1 0.1-9.6-1.9-3.7-1.4-5.2-1.1-5.6-0.4 0.6-2.1 3.3-1.9 4.9 0 0-1.5-1.4-0.6-3.2 1-1.8 0.7-6.4-1.4-8.2-2-1.8-2-1.7-2-3.5 0-1.7-0.2-2.2-1.8-3.1 0 0 1.3 2.4 0.1 3.7-1.2 1.4-0.2 3.9-1.4 5.2-1.2 1.4-3.1 2.4-2.1 4.8 1 2.4-0.2 3.4-0.2 3.4 0 0 1.1-1.8-0.4-2.2-1.5-0.5-2.8-1.4-2.4-2.9 0 0-1.2 1.4-1.6 3.7z"/>
			<path id="&lt;Path&gt;" class="s0" d="m142.2 73.5q0.1-0.2 0.1-0.2 0 0-0.1 0.2z"/>
			<path id="&lt;Path&gt;" class="s0" d="m140.8 88.9c0.1-4.4-3.5-8-7.9-8.1-4.4 0-8 3.5-8.1 7.9q0 1.7 0.6 3.1c0.1-4 3.4-7.3 7.4-7.2 4 0 7.3 3.3 7.2 7.3q0 0.2 0 0.4c0.5-1.1 0.8-2.2 0.8-3.4z"/>
			<path id="&lt;Path&gt;" fill-rule="evenodd" class="s0" d="m132.7 95.6c-2 0-3.7-1.7-3.7-3.7 0-2.1 1.7-3.8 3.7-3.8 2.1 0 3.8 1.7 3.8 3.8 0 2-1.7 3.7-3.8 3.7z"/>
			<path id="&lt;Path&gt;" class="s0" d="m34.4 153.4c0.7 3.8 6.9 5.1 6.9 5.1-4.3 0.8-6.5-0.8-6.5-0.8-0.1 4.2 1.4 18.4 10.5 24.3 9 5.9 19.1 2.2 19.1 2.2-10.5 1.4-15.1-2.3-19.5-7.3-4.4-5-3.9-13.3 0.4-14 4.4-0.7 5.5 3.1 5.5 3.1 0 0-1.6-2.1-4.2-1-2.5 1-3.6 4.7-0.3 7.4 3.2 2.7 8.8 0.3 9.9-3.8 1-4-4.1-7.3-6.5-9.3-2.4-1.9-2.7-5.1-2.7-5.1-0.6 3.7-2.7 3.3-2.7 3.3 2.7-3.3-1.4-8.1-3.4-17.7-2-9.5 4.2-28.9 4.2-28.9-7 6.2-11.4 38.6-10.7 42.5z"/>
			<path id="&lt;Path&gt;" class="s0" d="m55.1 204.6c0 0 3 0 5 2.4 2.1 2.4 9.2 5.2 13.6 0.5 4.4-4.8 0.3-9.6-1.8-10.1-2.1-0.4-5.1 0-5.6 2.7-0.5 2.7 2.4 3.6 3.7 2.9 1.4-0.8 0.5-2.7 0.5-2.7 2.4 0.3 3.2 3.6-0.5 4.7-3.7 1.2-6.4-2-6.5-4.3-0.2-2.4 2.7-9 13-6.3 10.3 2.6 16.8 14.6 16.8 14.6 0 0 2.1-3.9-0.6-7.9-2.6-4.1-10.5-11.2-10.5-11.2 0.9 2.6-1.8 4.8-1.8 4.8 0 0 1.8-4.8-4.9-7.2-6.7-2.5-15.3-0.6-15.3-0.6 2.6 1.7 2.7 6.3 2.7 6.3-1.1-4.1-6.9-5.6-11.8-5.2-5 0.4-6.5-1.6-8.4-3.2-1.9-1.7-2.3-4.8-2.3-4.8-0.9 3.6 1.6 7.5 5.4 12.7 3.8 5.3 7.4 8.8 11.8 8.8 4.5 0 5.1 0.9 5.1 0.9-3.6-0.7-7.6 2.2-7.6 2.2z"/>
			<path id="&lt;Path&gt;" class="s0" d="m69.9 182.6c2.3-0.5 4.7-4.1 2.3-5.9-2.4-1.8-4.5 0.1-4.3 1.3 0.1 1.2 2.3 1.5 2.3 1.5-1.6 0.7-4-0.2-4.1-1.7-0.2-1.5 0.2-5 4.9-4.5 4.8 0.4 5.7 6.9 5.7 6.9 0 0 4.1-1 11.9 4.9 7.7 5.9 9.5 18.1 9.5 18.1 0 0 2.4-2.9 3.3-4.3 0.9-1.3-0.1-6.4-1.9-8.1-1.7-1.6-1.7-4.3-1.7-4.3 0 0-1.2 1.3-1.1 2.7 0.2 1.3-0.9 1.8-0.9 1.8 0.7-5.9-5.7-11.6-8.8-13.1-3.1-1.5-3-2.9-3-2.9 0 0-1.2 1.8-0.8 3.3 0.5 1.5 0.2 1.6 0.2 1.6-1.5-5.6-9.9-8.3-14.1-8.6-4.2-0.3-9.1-5.3-9.1-5.3 0 0-1 8.5 1.2 12.2 2.3 3.8 6.3 5 8.5 4.4z"/>
			<path id="&lt;Path&gt;" class="s0" d="m75.1 181.8c0 0-1.5 2.2-3.7 2.7 0 0 8.1 0 14.9 6.1 6.8 6 9.4 11.3 9.7 15.1 0 0 1.4-5.3-2.3-11-3.7-5.7-8.6-11.8-18.6-12.9z"/>
			<path id="&lt;Path&gt;" class="s0" d="m72.7 220c4 3 7.9 2.6 7.9 2.6l9.9-10.5c0.5-4.8-4.6-9.6-7.8-11.6-3.1-1.9-5-4-5-4 0 0-0.6 2 0.4 3.1 1 1.1 0.6 4 0.6 4 0 0 1.8 0.6 5 2.5 3.3 1.8 3.1 5.7 3.1 5.7-3-0.2-8-7.3-8-7.3 0.6 1.7-0.8 3-0.8 3 8.5 5.3 6.2 8.1 6.2 8.1l-1.6-0.4c-2.7-1-5.5-7.1-5.5-7.1-0.3 1.3-3.3 2.8-3.3 2.8 2.7 0.9 6.5 6.2 6.5 6.2-6.4 0.5-9.2-6.2-9.2-6.2 0 0-3.3 0.8-4.7 0.4-1.5-0.5-3.5 0.1-3.5 0.1 3.8 0.6 5.8 5.6 9.8 8.6z"/>
			<path id="&lt;Path&gt;" class="s0" d="m59.5 179.1c-1.8-1.3-2.5-6.7-2.5-6.7-1.6 2.5-4.9 2.5-4.9 2.5 2 3.1 7.4 4.2 7.4 4.2z"/>
			<path id="&lt;Path&gt;" class="s0" d="m49.4 175.3c-0.9 0.3-3-0.6-3-0.6 6.2 10.9 17.7 8.2 17.7 8.2-1.5-0.3-2.4-1.7-2.4-1.7-7.6 0.1-12.3-5.9-12.3-5.9z"/>
			<path id="&lt;Path&gt;" class="s0" d="m102 200.6c0 0-13.3 16.6-19.6 22.3 0 0-1.5 2.8 1.3 1.8 0 0 18.3-20.3 19.6-22.9 0 0 1.2-2.9-1.3-1.2z"/>
			<path id="&lt;Path&gt;" class="s0" d="m118.7 216.8c0.2-2.8-1.9-0.4-1.9-0.4-5.2 8.7-15.4 19.2-15.4 19.2-1.3 3.2 1.6 1.3 1.6 1.3 4.8-3.6 15.7-20.1 15.7-20.1z"/>
			<path id="&lt;Path&gt;" class="s0" d="m81.5 108.9c0 0 0.2-4.7 1.6-7 0 0-5.3 3.5-4.9 7.5 0 0-1-1-0.8-3 0 0-5.8 4.6-7.6 6.4-1.8 1.8-0.9 7-0.9 7 0 0-1.4-2.4-1.6-3.8 0 0-1.9 2.4-3.4 4.3-1.5 2-0.8 6.6-0.8 6.6 0 0-1.5-1.8-1.6-3.2 0 0-3.2 4.2-4.4 6.9-1.2 2.7 1 6.7 1 6.7 0 0-1.9-1.7-2.5-3.2 0 0-2 4.8-2.3 7.2-0.3 2.4 1.7 5.7 1.7 5.7 0 0-1.3-0.6-2.3-1.8 0 0-1.1 3.2-1.7 5.6-0.7 2.4 0.8 5.1 1.5 6.2 0.8 1 2.9 1.6 2.9 1.6 0 0-1.1-15.8 9.7-32.1 10.7-16.3 16.4-17.6 16.4-17.6z"/>
			<path id="&lt;Path&gt;" class="s0" d="m84.9 148.3c-1.5-1-3-2.1-4.3-3.2-1.2 1.6-2.3 3.5-3.4 5.5q-0.4 0.9-0.8 1.8c1.8 1.6 3.7 2.3 5.2 2.6q0.1-0.4 0.2-0.8c0.7-2.2 1.8-4.2 3.1-5.9z"/>
			<path id="&lt;Path&gt;" class="s0" d="m81.1 157.5c-1.8-0.3-3.7-1-5.6-2.5q-0.5 1.4-0.7 2.8c1 0.8 3 1.8 5.9 2.3q0.1-1.3 0.4-2.6z"/>
			<path id="&lt;Path&gt;" class="s0" d="m98.5 138.7c-5.3-0.8-8.4-3.3-8.4-3.3 0 0-1.8 1.2-4.3 3.6 1.6 1.4 3.7 2.6 5.6 3.5 3.8-2.6 7.1-3.8 7.1-3.8z"/>
			<path id="&lt;Path&gt;" class="s0" d="m81.6 174.5c0 0-0.6-2-1-5.3-1.8-0.1-4-0.4-6.1-1.2 0.1 1.2 0.3 1.9 0.3 1.9 2.7 1.3 6.8 4.6 6.8 4.6z"/>
			<path id="&lt;Path&gt;" class="s0" d="m74.2 165.1c2.1 0.9 4.3 1.3 6.2 1.4q0-1.8 0-3.8c-2.6-0.3-4.7-1.2-6.1-2-0.2 1.6-0.2 3.1-0.1 4.4z"/>
			<path id="&lt;Path&gt;" class="s0" d="m88.9 144.2c-1.7-0.9-3.5-2-4.9-3.3q-0.9 1-1.8 2c1.4 1.2 2.9 2.4 4.5 3.3q1.1-1 2.2-2z"/>
			<path id="&lt;Compound Path&gt;" fill-rule="evenodd" class="s0" d="m81.8 120.9q-0.5 0-1-0.1-0.3-1.9-0.4-3.5 0.3 0 0.6 0-0.1-0.8-0.1-1.4-0.3 0-0.5 0-0.1-1.2-0.1-2.3c0.2-0.1 0.3-0.2 0.4-0.3q0.1-1.4 0.3-2.6c-5.1 4.2-23.7 21.4-24.5 49.5q0.9 0.6 1.8 1.3c0.3 0.2 0.8 0.5 1.6 1q1.3 0.1 2.7 0.1 0.9 1.2 1.9 2.5c1.3 0.7 2.6 1.5 3.9 2.2q1.7 0.1 3.5 0 0.3 1.5 0.5 2.3 1.1 0.4 2.1 0.7l-0.1-0.2c0 0-2.2-5.8-0.4-14.9 1.8-8.5 12.5-18.4 15.9-20.7q-0.7-0.6-1.4-1.2c-0.6 0.5-1.5 1.1-2.4 2q-0.8-1.3-1.5-2.5 2 0 3.6-0.1-0.6-0.7-1-1.3-1.5 0-3.2 0-1.1-2.2-1.7-4.3 1 0 2.1 0-0.4-0.7-0.7-1.4-1 0-1.9 0-0.4-1.8-0.8-3.5 0.6 0 1.2 0.1-0.2-0.7-0.4-1.4zm-1.4 4.7q-1.9-0.1-3.7-0.4-0.4-1.8-0.8-3.7 2 0.4 3.8 0.6 0.3 1.7 0.7 3.5zm1.4 12.4q0.7 0 1.4-0.1-0.4 0.5-0.9 0.9-0.2-0.4-0.5-0.8zm-11.1 23q-1.5-1.5-3-3.4 2 0 4.1 0c-0.1 1.2-0.2 2.3-0.2 3.4q-0.5 0-0.9 0zm-10.6-13.8q0.9 2 1.8 3.8-1.3 0-2.6-0.2 0.4-1.8 0.8-3.6zm3.8-11q1.7 0.4 3.9 0.8 0.7 2 1.4 3.7c-1.6-0.1-3.2-0.2-4.8-0.3q-0.6-1.7-1-3.1 0.2-0.6 0.5-1.1zm2.3-4.6q0.5 2.1 1.1 3.9c-1-0.2-2-0.4-2.8-0.6q0.8-1.7 1.7-3.3zm12.9-14.5q0.1 1.7 0.3 3.6-1.8-0.2-3.7-0.6-0.1-0.8-0.2-1.7 0.8-0.8 1.6-1.6 0.9 0.2 2 0.3zm-4.6 4.1q0.3 2 0.8 3.8-1.9-0.3-3.6-0.7 0-0.6-0.1-1.1 0.9-1.2 1.8-2.3 0.6 0.2 1.1 0.3zm-3.9 4.2c0.3 1.6 0.7 3.4 1.2 5.4q-2.4-0.3-4.7-0.9 1.5-2.5 3-4.7 0.2 0.1 0.5 0.2zm-5.7 16.4c1.6 0.1 3.3 0.2 4.9 0.3q1 2.1 2 4-2.9-0.1-5.3-0.3-0.9-2.1-1.6-4zm2.9 9.4q-2.2 0-4.3-0.1-1.1-2.1-2.2-4.6 1.9 0.3 4.3 0.5 1 2.1 2.2 4.2zm1.6-13.9q2.1 0.3 4.7 0.5 0.6 1.5 1.3 3c-1.5 0-3 0-4.7-0.1q-0.7-1.6-1.3-3.4zm-0.6-1.5q-0.7-2.1-1.3-4.4 2.3 0.5 4.7 0.8 0.6 2 1.4 4.2-2.6-0.3-4.8-0.6zm-5.9 4.4q-0.3 0-0.6-0.1 0.1-0.4 0.3-0.8 0.1 0.4 0.3 0.9zm0.5 1.4q0.6 1.9 1.5 4-2.4-0.2-4.2-0.5 0 0 0-0.1 0.5-1.8 1.1-3.6 0.8 0.1 1.6 0.2zm-0.7 10.8q1.1 2 2.2 3.7c-2-0.1-3.8-0.3-5.3-0.5q-0.4-0.6-0.8-1.2c0.1-0.8 0.2-1.5 0.3-2.2q1.7 0.1 3.6 0.2zm1.6 0.1q2.1 0 4.3 0 1.3 1.9 2.7 3.7-2.3 0.1-4.6 0-1.2-1.7-2.4-3.7zm8 2.4q0 0.1-0.1 0.2-1-1.3-1.9-2.6 1.4-0.1 2.7-0.1-0.5 1.2-0.7 2.5zm-2.9-3.8q-1.2-1.9-2.2-3.9 2.5 0.2 5.4 0.2 0.8 1.3 1.5 2.4-0.3 0.6-0.5 1.2-2 0.1-4.2 0.1zm4.8-3.7q0.6 0 1.3 0-0.4 0.5-0.6 1-0.4-0.4-0.7-1zm-0.8-1.3q-1-1.8-2-4c1.6 0 3.2 0 4.7 0q0.7 1.2 1.4 2.3-0.6 0.9-1.2 1.7-1.5 0-2.9 0zm4.2-4q1-0.1 1.8-0.1-0.5 0.6-1 1.3-0.4-0.6-0.8-1.2zm-0.6-1.4q-0.7-1.4-1.3-2.8 2.1 0.1 4.6 0.1c0.4 0.6 0.7 1.2 1.1 1.8q-0.4 0.4-0.7 0.8-1.7 0.1-3.7 0.1zm-1.9-4.2q-0.8-2.1-1.4-4.1 2.1 0.2 4.1 0.3 0.9 2.1 1.8 3.9-2.4 0-4.5-0.1zm-1.8-5.5c-0.5-1.9-1-3.7-1.3-5.3q1.7 0.4 3.7 0.8 0.7 2.5 1.5 4.8-1.9-0.1-3.9-0.3zm5.7-15.2q-0.4-0.1-0.8-0.2 0.4-0.4 0.8-0.7 0 0.4 0 0.9zm-20.7 45.1q0.1-2 0.2-4 0.1 0 0.3 0c0.8 1.3 1.8 2.8 2.9 4.3q-1.8-0.1-3.4-0.3zm2.2-3.8c1.6 0.2 3.5 0.4 5.4 0.4q1.5 2 3 3.6c-1.8 0.1-3.7 0.2-5.5 0.2-1.1-1.5-2-2.9-2.9-4.2zm6.3 8.7q-1.3-1.6-2.5-3.2c2 0 3.9-0.1 5.8-0.2q0.7 0.8 1.5 1.4 0 1.2 0.1 2.2c-1.7 0-3.4-0.1-4.9-0.2zm18.2-29.6q-0.2 0.2-0.3 0.3-1.9 0.1-3.6 0.1-0.9-1.8-1.8-3.8 2 0 3.8 0 0.9 1.7 1.9 3.4zm-2.5-4.7q-1.8 0-3.8-0.1-0.9-2.2-1.6-4.7 1.8 0.2 3.7 0.3 0.7 2.2 1.7 4.5z"/>
			<path id="&lt;Path&gt;" class="s0" d="m104.6 203.7c0 0 1 0.8 1.1 2.4 0 1.5 3.5 4.5 3.5 4.5 0 0 3.6 3.1 5.1 2.9 1.5-0.1 2.5 0.8 2.5 0.8 0 0-0.6-1.8-1.7-1.8-1.2 0-3.6-1.7-5-2.9-1.4-1.2-3.4-3.4-3.5-4.5-0.2-1.1-2-1.4-2-1.4z"/>
			<path id="&lt;Path&gt;" class="s0" d="m107.5 204.9c-0.3 0.9 3.1 4.2 3.1 4.2 0 0 3.7 2.9 4.5 2.5 0.9-0.4 0.7-2.5 0.7-2.5-0.5 0.6-1.6 0-1.6 0 0 0-1.2 0.3 0.2-0.2 1.5-0.5 0.7-5 0.7-5 0 0-4.6-0.1-4.9 1.4-0.3 1.5-0.2 0.2-0.2 0.2 0 0-0.7-1-0.2-1.6 0 0-2.1 0.2-2.3 1z"/>
			<path id="&lt;Path&gt;" class="s0" d="m103.3 207.6c1-2.1 0.1-3.2 0.1-3.2-4.7 3.1-4.2 6.7-2.2 9.8 2 3.2 0.3 4.5 0 5.7 1.2-0.4 2.2-2.4 5.6-0.8 3.4 1.5 7.1 1.6 9.4-3.6 0 0-1.1-0.7-3.1 0.6-2 1.3-4.1 2.1-5.8 1 0 0 1.9 0.9 3.8-1.2 1.9-2 3.2-1.7 3.2-1.7 0 0-4-1.7-5.3-3.3-1.7-1.1-4-4.7-4-4.7 0 0 0.5 1.1-1.3 3.3-1.8 2.3-0.6 4-0.6 4-1.3-1.6-0.9-3.7 0.2-5.9z"/>
			<path id="&lt;Path&gt;" class="s0" d="m97.6 236.4c0 0-1.1-0.8-1.2-2.3 0-1.5-3.5-4.6-3.5-4.6 0 0-3.5-3-5.1-2.9-1.5 0.2-2.4-0.7-2.4-0.7 0 0 0.6 1.8 1.7 1.7 1.1 0 3.5 1.7 4.9 2.9 1.4 1.3 3.4 3.4 3.6 4.5 0.1 1.1 2 1.4 2 1.4z"/>
			<path id="&lt;Path&gt;" class="s0" d="m94.7 235.2c0.2-0.8-3.1-4.2-3.1-4.2 0 0-3.8-2.8-4.6-2.5-0.8 0.4-0.7 2.5-0.7 2.5 0.5-0.6 1.6 0 1.6 0 0 0 1.2-0.3-0.2 0.2-1.4 0.6-0.7 5.1-0.7 5.1 0 0 4.6 0.1 4.9-1.4 0.3-1.5 0.2-0.2 0.2-0.2 0 0 0.7 0.9 0.2 1.5 0 0 2.1-0.1 2.4-1z"/>
			<path id="&lt;Path&gt;" class="s0" d="m98.8 232.5c-1 2.2-0.1 3.2-0.1 3.2 4.8-3 4.2-6.6 2.2-9.8-2-3.1-0.2-4.5 0-5.7-1.1 0.5-2.2 2.4-5.6 0.8-3.4-1.5-7.1-1.5-9.4 3.7 0 0 1.2 0.7 3.2-0.7 2-1.3 4-2 5.7-1 0 0-1.8-0.9-3.8 1.2-1.9 2.1-3.1 1.7-3.1 1.7 0 0 3.9 1.8 5.2 3.3 1.7 1.1 4 4.8 4 4.8 0 0-0.5-1.2 1.3-3.4 1.8-2.2 0.6-3.9 0.6-3.9 1.3 1.5 0.9 3.6-0.2 5.8z"/>
			<path id="&lt;Path&gt;" class="s0" d="m97.5 213.2c0.9 1.5 3.6 2.8 3.2 6.1 0 0 1.8-2.3 0.6-3.9-1.2-1.6-3-4.8-2.4-5.9 0 0-2.2 2.1-1.4 3.7z"/>
			<path id="&lt;Path&gt;" class="s0" d="m98.5 215.5c-1.5-1.4-2.1-2-1.9-2.6 0 0-1.1 1.5 0.7 2.8 1.8 1.3 3 3.7 3 3.7v-0.4c0 0-0.2-2.1-1.8-3.5z"/>
			<path id="&lt;Path&gt;" class="s0" d="m111.9 220.8c-1 0.7-4.5-0.7-6.3-1.6-1.7-0.9-3.7 1.1-3.7 1.1 3.2-0.8 4.9 1.7 6.5 2.3 1.6 0.6 3.5-1.8 3.5-1.8z"/>
			<path id="&lt;Path&gt;" class="s0" d="m108.8 223.5c-0.6 0.2-1.2-0.3-2.9-1.6-1.6-1.3-3.7-1.2-3.7-1.2h-0.4c0 0 2.6 0.9 4.1 2.5 1.6 1.6 2.9 0.3 2.9 0.3z"/>
			<path id="&lt;Path&gt;" class="s0" d="m90.2 219.4c1.1-0.7 4.5 0.6 6.3 1.6 1.8 0.9 3.7-1.2 3.7-1.2-3.1 0.9-4.9-1.6-6.5-2.2-1.6-0.7-3.5 1.8-3.5 1.8z"/>
			<path id="&lt;Path&gt;" class="s0" d="m93.3 216.6c0.6-0.2 1.3 0.3 2.9 1.6 1.6 1.3 3.7 1.3 3.7 1.3l0.4-0.1c0 0-2.5-0.8-4.1-2.4-1.5-1.7-2.9-0.4-2.9-0.4z"/>
			<path id="&lt;Path&gt;" class="s0" d="m104.6 227c-0.9-1.5-3.5-2.9-3.2-6.1 0 0-1.7 2.2-0.6 3.8 1.2 1.6 3 4.9 2.5 6 0 0 2.1-2.2 1.3-3.7z"/>
			<path id="&lt;Path&gt;" class="s0" d="m103.6 224.6c1.5 1.5 2.1 2 2 2.6 0 0 1.1-1.5-0.8-2.8-1.8-1.3-3-3.7-3-3.7v0.4c0 0 0.2 2.1 1.8 3.5z"/>
			<path id="&lt;Path&gt;" class="s0" d="m49.8 31.6c0 0 11.1-7.1 6.8-15-4.2-7.8-11.6 0.3-11.6 0.3 0 0 6 8.4 4.8 14.7z"/>
			<path id="&lt;Path&gt;" class="s0" d="m58.4 16.2c2.7 7.4-2.6 14.5-9.4 17.5l-1.8 4.9c0 0 13.7-13.8 20.6-18.3 0 0 1.8-7.9-1.7-11.3 0 0 1.5 6.2-1.4 8.7 0 0 1.8-7.2-1.7-10.9-3.4-3.8-8.5-3.2-15-1.4 0 0 7.7 3.5 10.4 10.8z"/>
			<path id="&lt;Path&gt;" class="s0" d="m17.5 43.8c0 0-8.2 7.2-0.4 11.6 7.8 4.4 15.1-6.5 15.1-6.5-6.4 1.1-14.7-5.1-14.7-5.1z"/>
			<path id="&lt;Path&gt;" class="s0" d="m18 63.6c-2.5 2.8-8.7 1.2-8.7 1.2 3.4 3.5 11.2 1.9 11.2 1.9 4.7-6.9 18.7-20.3 18.7-20.3l-4.9 1.8c-3.1 6.6-10.3 11.9-17.6 9-7.3-2.9-10.7-10.6-10.7-10.6-1.9 6.5-2.6 11.5 1.1 15 3.7 3.6 10.9 2 10.9 2z"/>
			<path id="&lt;Path&gt;" class="s0" d="m41.8 28.4c-3.4-3.5-9-3.5-12.5-0.1-3.5 3.4-3.6 9.1-0.1 12.6 3.4 3.5 9 3.5 12.5 0.1 3.5-3.4 3.6-9.1 0.1-12.6z"/>
			<path id="&lt;Path&gt;" class="s0" d="m16.6 26.7c3.5 0.8 4.6 2.7 5.1 4.5 0 0-4-4.2-10-3.1 0 0 4.8 0 4.7 5.7-0.1 5.7 4.3 12.3 15.3 13.3 0 0 0.4-0.1 1-0.3-2.3-0.5-4.4-1.7-6.1-3.4-4.8-4.9-4.7-12.8 0.2-17.7 4.9-4.8 12.8-4.7 17.6 0.2 1.7 1.8 2.8 3.9 3.3 6.1 0.2-0.6 0.3-0.9 0.3-0.9-0.8-11.1-7.3-15.5-13-15.6-5.6 0-5.6-4.8-5.6-4.8-1.2 6 2.9 10 2.9 10-1.8-0.5-3.7-1.6-4.4-5.1-0.8-3.6-4.7-4.6-10.4-4.9-5.7-0.4-9.8-4.4-9.8-4.4 0 0 3.9 4.2 4.2 9.9 0.2 5.7 1.1 9.6 4.7 10.5z"/>
		</g>
	</g>
</svg>